<svg width="12" height="12" viewBox="0 0 12 12" fill="none" xmlns="http://www.w3.org/2000/svg">
<g clip-path="url(#clip0_203_22144)">
<path d="M0.375 2.11546H6.08449C6.25657 2.89872 6.95604 3.48674 7.79023 3.48674C8.62441 3.48674 9.32388 2.89874 9.49596 2.11546H11.625C11.8321 2.11546 12 1.94755 12 1.74046C12 1.53337 11.8321 1.36546 11.625 1.36546H9.49577C9.32337 0.5826 8.62294 -0.00579834 7.79023 -0.00579834C6.95707 -0.00579834 6.25697 0.582506 6.08463 1.36546H0.375C0.167906 1.36546 0 1.53337 0 1.74046C0 1.94755 0.167906 2.11546 0.375 2.11546ZM6.79399 1.74144L6.79402 1.73741C6.79566 1.18975 7.24254 0.744225 7.79023 0.744225C8.33714 0.744225 8.78405 1.18914 8.78641 1.73655L8.78648 1.74205C8.78562 2.29065 8.33904 2.73676 7.79023 2.73676C7.24165 2.73676 6.79521 2.2911 6.79397 1.74283L6.79399 1.74144ZM11.625 9.88454H9.49577C9.32334 9.10171 8.62294 8.51329 7.79023 8.51329C6.95707 8.51329 6.25697 9.10161 6.08463 9.88454H0.375C0.167906 9.88454 0 10.0524 0 10.2595C0 10.4667 0.167906 10.6345 0.375 10.6345H6.08449C6.25657 11.4178 6.95604 12.0058 7.79023 12.0058C8.62441 12.0058 9.32388 11.4178 9.49596 10.6345H11.625C11.8321 10.6345 12 10.4667 12 10.2595C12 10.0524 11.8321 9.88454 11.625 9.88454ZM7.79023 11.2558C7.24165 11.2558 6.79521 10.8102 6.79397 10.2619L6.79399 10.2605L6.79402 10.2565C6.79566 9.70883 7.24254 9.26329 7.79023 9.26329C8.33714 9.26329 8.78405 9.7082 8.78641 10.2556L8.78648 10.2611C8.78569 10.8098 8.33909 11.2558 7.79023 11.2558ZM11.625 5.62501H5.91551C5.74343 4.84176 5.04396 4.25376 4.20977 4.25376C3.37559 4.25376 2.67612 4.84176 2.50404 5.62501H0.375C0.167906 5.62501 0 5.79292 0 6.00001C0 6.20713 0.167906 6.37501 0.375 6.37501H2.50423C2.67666 7.15785 3.37706 7.74627 4.20977 7.74627C5.04293 7.74627 5.74303 7.15794 5.91537 6.37501H11.625C11.8321 6.37501 12 6.20713 12 6.00001C12 5.79292 11.8321 5.62501 11.625 5.62501ZM5.20601 5.99903L5.20598 6.00306C5.20434 6.55072 4.75746 6.99625 4.20977 6.99625C3.66286 6.99625 3.21595 6.55133 3.21359 6.00395L3.21352 5.99847C3.21434 5.4498 3.66094 5.00376 4.20977 5.00376C4.75835 5.00376 5.20479 5.4494 5.20603 5.99769L5.20601 5.99903Z" fill="white"/>
</g>
<defs>
<clipPath id="clip0_203_22144">
<rect width="12" height="12" fill="white"/>
</clipPath>
</defs>
</svg>
