<svg width="24" height="24" viewBox="0 0 24 24" fill="none" xmlns="http://www.w3.org/2000/svg">
<path d="M8.73649 9.29565H6.26758C5.87927 9.29565 5.56445 9.61047 5.56445 9.99878V12.1415C5.56445 12.5298 5.87927 12.8446 6.26758 12.8446H8.73649C9.1248 12.8446 9.43961 12.5298 9.43961 12.1415V9.99878C9.43961 9.61042 9.12475 9.29565 8.73649 9.29565ZM8.03336 11.4384H6.9707V10.7019H8.03336V11.4384ZM13.2963 9.29565H10.8274C10.4391 9.29565 10.1243 9.61047 10.1243 9.99878V12.1415C10.1243 12.5298 10.4391 12.8446 10.8274 12.8446H13.2963C13.6846 12.8446 13.9994 12.5298 13.9994 12.1415V9.99878C13.9994 9.61047 13.6846 9.29565 13.2963 9.29565ZM12.5932 11.4384H11.5305V10.7019H12.5932V11.4384ZM17.8561 9.29565H15.3872C14.9989 9.29565 14.6841 9.61047 14.6841 9.99878V12.1415C14.6841 12.5298 14.9989 12.8446 15.3872 12.8446H17.8561C18.2444 12.8446 18.5592 12.5298 18.5592 12.1415V9.99878C18.5592 9.61042 18.2444 9.29565 17.8561 9.29565ZM17.153 11.4384H16.0903V10.7019H17.153V11.4384ZM8.73649 13.4049H6.26758C5.87927 13.4049 5.56445 13.7197 5.56445 14.108V16.2507C5.56445 16.639 5.87927 16.9538 6.26758 16.9538H8.73649C9.1248 16.9538 9.43961 16.639 9.43961 16.2507V14.108C9.43961 13.7197 9.12475 13.4049 8.73649 13.4049ZM8.03336 15.5476H6.9707V14.8111H8.03336V15.5476ZM13.2963 13.4049H10.8274C10.4391 13.4049 10.1243 13.7197 10.1243 14.108V16.2507C10.1243 16.639 10.4391 16.9538 10.8274 16.9538H13.2963C13.6846 16.9538 13.9994 16.639 13.9994 16.2507V14.108C13.9994 13.7197 13.6846 13.4049 13.2963 13.4049ZM12.5932 15.5476H11.5305V14.8111H12.5932V15.5476ZM17.8561 13.4049H15.3872C14.9989 13.4049 14.6841 13.7197 14.6841 14.108V16.2507C14.6841 16.639 14.9989 16.9538 15.3872 16.9538H17.8561C18.2444 16.9538 18.5592 16.639 18.5592 16.2507V14.108C18.5592 13.7197 18.2444 13.4049 17.8561 13.4049ZM17.153 15.5476H16.0903V14.8111H17.153V15.5476ZM8.73649 17.514H6.26758C5.87927 17.514 5.56445 17.8288 5.56445 18.2171V20.3598C5.56445 20.7482 5.87927 21.063 6.26758 21.063H8.73649C9.1248 21.063 9.43961 20.7482 9.43961 20.3598V18.2171C9.43961 17.8288 9.12475 17.514 8.73649 17.514ZM8.03336 19.6568H6.9707V18.9203H8.03336V19.6568ZM17.8561 17.514H10.8273C10.439 17.514 10.1242 17.8288 10.1242 18.2171V20.3598C10.1242 20.7482 10.439 21.063 10.8273 21.063H17.8561C18.2444 21.063 18.5592 20.7482 18.5592 20.3598V18.2171C18.5592 17.8288 18.2444 17.514 17.8561 17.514ZM17.153 19.6568H11.5305V18.9203H17.1529V19.6568H17.153Z" fill="#3931ED"/>
<path d="M19.0146 0H5.10938C3.94627 0 3 0.946266 3 2.10938V21.8906C3 23.0537 3.94627 24 5.10938 24H19.0146C20.1777 24 21.124 23.0537 21.124 21.8906V2.10938C21.124 0.946266 20.1777 0 19.0146 0ZM19.7177 21.8906C19.7177 22.2783 19.4023 22.5938 19.0146 22.5938H5.10938C4.72167 22.5938 4.40625 22.2783 4.40625 21.8906V2.10938C4.40625 1.72167 4.72167 1.40625 5.10938 1.40625H19.0146C19.4023 1.40625 19.7177 1.72167 19.7177 2.10938V21.8906Z" fill="#3931ED"/>
<path d="M17.8855 2.87582H6.42578C5.72791 2.87582 5.16016 3.44357 5.16016 4.14145V6.28593C5.16016 6.98381 5.72791 7.55156 6.42578 7.55156H17.8855C18.5833 7.55156 19.1511 6.98381 19.1511 6.28593V4.14145C19.1511 3.44357 18.5834 2.87582 17.8855 2.87582ZM6.56641 6.14531V4.28207H17.7448V6.14531H6.56641Z" fill="#3931ED"/>
</svg>
