<svg width="30" height="30" viewBox="0 0 30 30" fill="none" xmlns="http://www.w3.org/2000/svg">
<path fill-rule="evenodd" clip-rule="evenodd" d="M15.0057 1.88286C18.4456 1.94502 21.7236 3.35516 24.1343 5.80981C26.545 8.26445 27.8957 11.5674 27.8957 15.0079C27.8957 18.4483 26.545 21.7513 24.1343 24.2059C21.7236 26.6606 18.4456 28.0707 15.0057 28.1329C11.5658 28.0707 8.28779 26.6606 5.87709 24.2059C3.4664 21.7513 2.11572 18.4483 2.11572 15.0079C2.11572 11.5674 3.4664 8.26445 5.87709 5.80981C8.28779 3.35516 11.5658 1.94502 15.0057 1.88286ZM12.28 19.2714L9.06569 16.0543C8.80258 15.7903 8.65485 15.4327 8.65485 15.06C8.65485 14.6873 8.80258 14.3297 9.06569 14.0657C9.33013 13.8029 9.68783 13.6553 10.0607 13.6553C10.4335 13.6553 10.7912 13.8029 11.0557 14.0657L13.32 16.3329L18.9557 10.6971C19.2197 10.434 19.5772 10.2863 19.95 10.2863C20.3227 10.2863 20.6802 10.434 20.9443 10.6971C21.207 10.9613 21.3545 11.3188 21.3545 11.6914C21.3545 12.064 21.207 12.4215 20.9443 12.6857L14.3128 19.3171C14.1782 19.4511 14.0179 19.5564 13.8416 19.6269C13.6653 19.6974 13.4765 19.7315 13.2867 19.7272C13.0968 19.7229 12.9098 19.6804 12.7368 19.6021C12.5638 19.5237 12.4084 19.4113 12.28 19.2714Z" fill="white"/>
</svg>
