<svg width="30" height="30" viewBox="0 0 30 30" fill="none" xmlns="http://www.w3.org/2000/svg">
<path fill-rule="evenodd" clip-rule="evenodd" d="M15.0057 1.88286C14.62 1.88286 14.2357 1.97714 13.8671 2.16572C12.3971 2.92 11.5957 4.35 9.79425 4.95143L5.89854 6.25286C4.92711 6.57714 4.47425 7.63572 4.55139 8.65714C5.07282 15.6457 7.36997 24.7743 13.9385 27.8857C14.2885 28.05 14.6471 28.1329 15.0057 28.1329V19.0943L14.7814 19.3171C14.6468 19.4511 14.4865 19.5564 14.3102 19.6269C14.1338 19.6974 13.9451 19.7315 13.7552 19.7272C13.5654 19.7229 13.3784 19.6804 13.2054 19.6021C13.0324 19.5237 12.877 19.4113 12.7485 19.2714L9.53425 16.0543C9.27115 15.7903 9.12341 15.4327 9.12341 15.06C9.12341 14.6873 9.27115 14.3297 9.53425 14.0657C9.79864 13.8033 10.156 13.656 10.5285 13.656C10.901 13.656 11.2584 13.8033 11.5228 14.0657L13.7885 16.3329L15.0057 15.1171V1.88286ZM15.0057 1.88286C15.39 1.88286 15.7743 1.97714 16.1428 2.16572C17.6143 2.92 18.4143 4.35 20.2171 4.95143L24.1114 6.25286C25.0828 6.57714 25.5357 7.63572 25.46 8.65714C24.9385 15.6457 22.6414 24.7743 16.0728 27.8857C15.74 28.0467 15.3754 28.1311 15.0057 28.1329V19.0943L21.4128 12.6857C21.6756 12.4215 21.8231 12.064 21.8231 11.6914C21.8231 11.3188 21.6756 10.9613 21.4128 10.6971C21.1488 10.434 20.7913 10.2863 20.4185 10.2863C20.0458 10.2863 19.6883 10.434 19.4243 10.6971L15.0057 15.1171V1.88286Z" fill="white"/>
</svg>
