<svg width="30" height="30" viewBox="0 0 30 30" fill="none" xmlns="http://www.w3.org/2000/svg">
<path fill-rule="evenodd" clip-rule="evenodd" d="M12.0027 27.4086L13.8585 18.34C13.8776 18.2528 13.8765 18.1624 13.8552 18.0757C13.8339 17.989 13.793 17.9084 13.7356 17.84C13.6801 17.7695 13.6091 17.7127 13.5281 17.674C13.447 17.6354 13.3582 17.6159 13.2685 17.6171H8.5656C8.47561 17.6186 8.3865 17.5992 8.30522 17.5606C8.22394 17.5219 8.15269 17.465 8.09703 17.3943C8.03936 17.325 7.99852 17.2432 7.9777 17.1555C7.95688 17.0678 7.95665 16.9764 7.97703 16.8886L11.0999 2.35857C11.1285 2.22005 11.2054 2.09619 11.3169 2.00907C11.4283 1.92195 11.5671 1.87722 11.7085 1.88286L21.4656 2.19715C21.5685 2.19878 21.6692 2.2275 21.7575 2.28042C21.8457 2.33333 21.9185 2.40858 21.9685 2.49857C22.0742 2.68429 22.077 2.89857 21.9742 3.08572L16.7942 12.5786C16.742 12.671 16.7157 12.7758 16.7182 12.882C16.7208 12.9881 16.7519 13.0916 16.8085 13.1814C16.863 13.2726 16.9412 13.3473 17.0348 13.3976C17.1283 13.4479 17.2338 13.4719 17.3399 13.4671L21.3056 13.3529C21.4157 13.3482 21.525 13.3745 21.6209 13.4288C21.7169 13.4831 21.7957 13.5632 21.8485 13.66C21.9036 13.7557 21.9307 13.865 21.9267 13.9754C21.9226 14.0858 21.8876 14.1929 21.8256 14.2843L18.3227 19.5971L18.3156 19.6071L13.1027 27.8514C13.028 27.9712 12.9133 28.0607 12.7789 28.1041C12.6445 28.1475 12.4992 28.142 12.3685 28.0886C12.2374 28.0367 12.129 27.9401 12.0623 27.8159C11.9956 27.6917 11.975 27.5479 12.0042 27.41L12.0027 27.4086Z" fill="white"/>
</svg>
