<svg width="30" height="30" viewBox="0 0 30 30" fill="none" xmlns="http://www.w3.org/2000/svg">
<path fill-rule="evenodd" clip-rule="evenodd" d="M5.09049 4H24.0313C25.4552 4 26.6154 5.44149 26.6154 7.2091V20.0488C26.6144 20.9001 26.3418 21.7162 25.8575 22.3183C25.3731 22.9204 24.7164 23.2594 24.0313 23.2611H5.09049C4.40534 23.2594 3.74865 22.9204 3.2643 22.3183C2.77994 21.7162 2.50739 20.9001 2.50635 20.0488V7.2091C2.50635 5.44149 3.66784 4 5.09049 4ZM8.53165 8.81529H20.5901C21.3015 8.81529 21.8815 9.53603 21.8815 10.4198C21.8802 10.8449 21.7437 11.252 21.5018 11.5525C21.2599 11.8531 20.9322 12.0227 20.5901 12.0244H8.53165C8.18957 12.0227 7.86189 11.8531 7.62001 11.5525C7.37812 11.252 7.24161 10.8449 7.24023 10.4198C7.24023 9.53603 7.82032 8.81529 8.53165 8.81529ZM8.53165 15.2351H20.5901C21.3015 15.2351 21.8815 15.9559 21.8815 16.8397C21.8802 17.2647 21.7437 17.6718 21.5018 17.9724C21.2599 18.2729 20.9322 18.4425 20.5901 18.4442H8.53165C8.18957 18.4425 7.86189 18.2729 7.62001 17.9724C7.37812 17.6718 7.24161 17.2647 7.24023 16.8397C7.24023 15.9559 7.82032 15.2351 8.53165 15.2351Z" fill="white"/>
<path fill-rule="evenodd" clip-rule="evenodd" d="M8.75306 27.9133L14.0329 21.7005L16.7706 18.4441H8.53126C8.23869 18.4428 7.95505 18.3188 7.72635 18.092C7.49765 17.8653 7.33731 17.5492 7.27134 17.1951L7.30022 27.1387C7.30022 27.5757 7.49971 27.9475 7.82256 28.1187C7.97649 28.2035 8.1473 28.2293 8.31308 28.1927C8.47887 28.1561 8.63208 28.0588 8.75306 27.9133ZM19.3311 15.235C19.3965 14.9927 19.389 14.7291 19.3101 14.4931C19.2479 14.2933 19.1379 14.1219 18.9951 14.0018C18.8523 13.8818 18.6833 13.8188 18.5109 13.8213H8.12704C8.0134 13.8191 7.90061 13.8459 7.79564 13.9C7.69067 13.9541 7.59575 14.0344 7.51677 14.136C7.43518 14.2345 7.37073 14.3528 7.32739 14.4835C7.28405 14.6142 7.26274 14.7545 7.26478 14.8959L7.27003 16.4939C7.33407 16.1374 7.49383 15.8185 7.72303 15.5897C7.95224 15.361 8.23726 15.2359 8.53126 15.235H19.3298H19.3311Z" fill="white"/>
</svg>
