<svg width="19" height="31" viewBox="0 0 19 31" fill="none" xmlns="http://www.w3.org/2000/svg">
<path d="M10.6665 12.0002H18.1665L17.3332 15.3335H10.6665V30.3335H7.33317V15.3335H0.666504V12.0002H7.33317V8.88016C7.33317 5.9085 7.64317 4.83016 8.22317 3.7435C8.79152 2.66984 9.66951 1.79184 10.7432 1.2235C11.8298 0.643496 12.9082 0.333496 15.8798 0.333496C16.7498 0.333496 17.5132 0.41683 18.1665 0.583496V3.66683H15.8798C13.6732 3.66683 13.0015 3.79683 12.3148 4.1635C11.822 4.42101 11.42 4.82357 11.1632 5.31683C10.7965 6.00183 10.6665 6.6735 10.6665 8.88016V12.0002Z" fill="#010B12"/>
</svg>
