<svg width="32" height="32" viewBox="0 0 32 32" fill="none" xmlns="http://www.w3.org/2000/svg">
<path d="M12.8315 28.6166C18.8309 28.6166 23.6943 23.7532 23.6943 17.7538C23.6943 11.7545 18.8309 6.89108 12.8315 6.89108C6.83218 6.89108 1.96875 11.7545 1.96875 17.7538C1.96875 23.7532 6.83218 28.6166 12.8315 28.6166Z" fill="#E9F4FA"/>
<path d="M12.9547 26.15L12.8169 25.9152C10.7123 22.3294 5.11959 14.7196 5.0631 14.6432L4.98242 14.5336L6.88784 12.6505L12.9193 16.8622C16.7169 11.9342 20.2598 8.54948 22.5709 6.57293C25.0989 4.41078 26.7445 3.41539 26.7611 3.40585L26.7985 3.38345H30.0307L29.7219 3.65841C21.7817 10.7308 13.1753 25.7624 13.0896 25.9134L12.9547 26.15Z" fill="#3931ED"/>
</svg>
