<svg width="80" height="80" viewBox="0 0 80 80" fill="none" xmlns="http://www.w3.org/2000/svg">
<circle cx="40" cy="40" r="40" fill="#3931ED"/>
<g clip-path="url(#clip0_100_18834)">
<path d="M39.0251 38.6499H30.1001C29.6501 38.6499 29.3501 38.3499 29.3501 37.8999C29.3501 37.4499 29.6501 37.1499 30.1001 37.1499H39.0251C39.4751 37.1499 39.7751 37.4499 39.7751 37.8999C39.7751 38.3499 39.4751 38.6499 39.0251 38.6499Z" fill="white"/>
<path d="M22 38.35C21.925 38.35 21.85 38.35 21.775 38.275L19.15 37.3C18.55 37.075 18.025 36.475 17.95 35.875V35.8L17.875 34.9C17.8 34.225 18.025 33.625 18.625 33.175L18.7 33.1V32.95L18.925 31.975C19 31.15 19.825 30.475 20.8 30.475H21.925C23.05 29.95 23.95 29.575 24.7 29.2C26.8 28.15 28.15 27.55 30.7 27.4C33.925 27.025 35.35 28.225 37.825 30.25L38.5 30.85L38.65 30.925H38.8C42.625 30.7 45.85 31.225 48.475 32.65C49.075 33.025 49.45 33.625 49.45 34.3V36.4C49.45 37.45 48.625 38.275 47.575 38.275H47.125C46.675 38.275 46.375 37.975 46.375 37.525C46.375 37.075 46.675 36.775 47.125 36.775H47.5C47.8 36.775 47.875 36.55 47.875 36.4V34.3C47.875 34.225 47.8 34.075 47.65 34C45.25 32.725 42.4 32.2 38.875 32.425C38.425 32.5 37.975 32.425 37.525 32.05L36.775 31.45C34.45 29.5 33.4 28.675 30.775 28.975C28.45 29.05 27.325 29.65 25.3 30.625C24.55 31 23.65 31.45 22.45 31.9C22.15 32.05 21.925 32.05 21.7 32.05H20.725C20.575 32.05 20.35 32.2 20.35 32.275L20.125 33.25C20.125 33.775 19.825 34.15 19.45 34.45C19.375 34.525 19.3 34.6 19.3 34.75V34.825L19.375 35.65C19.45 35.8 19.525 35.95 19.675 35.95L22.3 36.925C22.675 37.075 22.9 37.525 22.75 37.9C22.6 38.2 22.3 38.35 22 38.35Z" fill="white"/>
<path d="M43 40.15C41.2 40.15 39.775 38.725 39.775 36.925C39.775 35.125 41.2 33.7 43 33.7C44.8 33.7 46.225 35.125 46.225 36.925C46.225 38.725 44.8 40.15 43 40.15ZM43 35.2C42.025 35.2 41.275 35.95 41.275 36.925C41.275 37.9 42.025 38.65 43 38.65C43.975 38.65 44.725 37.9 44.725 36.925C44.725 35.95 43.975 35.2 43 35.2ZM26.05 40.15C24.25 40.15 22.825 38.725 22.825 36.925C22.825 35.125 24.25 33.7 26.05 33.7C27.85 33.7 29.275 35.125 29.275 36.925C29.275 38.725 27.85 40.15 26.05 40.15ZM26.05 35.2C25.075 35.2 24.325 35.95 24.325 36.925C24.325 37.9 25.075 38.65 26.05 38.65C27.025 38.65 27.775 37.9 27.775 36.925C27.775 35.95 27.025 35.2 26.05 35.2ZM48.175 48.625H34C33.55 48.625 33.25 48.325 33.25 47.875C33.25 47.425 33.55 47.125 34 47.125H48.175C48.625 47.125 48.925 47.425 48.925 47.875C48.925 48.325 48.625 48.625 48.175 48.625Z" fill="white"/>
<path d="M21.475 48.625H18.925C17.275 48.625 16 47.275 16 45.7V43.375C16 41.725 17.35 40.375 19 40.375H51.175V30.625C51.175 28.975 52.525 27.625 54.175 27.625H57.7C59.2 27.625 60.475 28.525 61.075 29.875L61.525 30.925L63.775 36.4C63.925 36.625 63.925 36.925 64 37.075C64 37.15 64 37.225 64.075 37.225C64.075 37.3 64.15 37.375 64.15 37.45V45.55C64.15 47.2 62.875 48.475 61.225 48.475H60.775C60.325 48.475 60.025 48.175 60.025 47.725C60.025 47.275 60.325 46.975 60.775 46.975H61.225C61.975 46.975 62.65 46.3 62.65 45.55V37.6C62.65 37.525 62.65 37.45 62.575 37.375C62.575 37.225 62.5 37.15 62.5 37L59.8 30.4C59.425 29.575 58.675 29.05 57.775 29.05H54.25C53.425 29.05 52.75 29.725 52.75 30.55V41.05C52.75 41.5 52.45 41.8 52 41.8H19C18.175 41.8 17.5 42.475 17.5 43.3V45.625C17.5 46.375 18.175 47.05 18.925 47.05H21.475C21.925 47.05 22.225 47.35 22.225 47.8C22.225 48.25 21.925 48.625 21.475 48.625Z" fill="white"/>
<path d="M60.9251 38.275H56.5001C55.3001 38.275 54.3251 37.3 54.3251 36.1V32.65C54.3251 31.45 55.3001 30.475 56.5001 30.475H58.3751C58.8251 30.475 59.1251 30.775 59.1251 31.225C59.1251 31.675 58.8251 31.975 58.3751 31.975H56.5001C56.0501 31.975 55.8251 32.35 55.8251 32.65V36.1C55.8251 36.55 56.2001 36.775 56.5001 36.775H60.9251C61.3751 36.775 61.6751 37.075 61.6751 37.525C61.6751 37.975 61.3751 38.275 60.9251 38.275ZM55.0751 42.175C54.6251 42.175 54.3251 41.875 54.3251 41.425V40.075C54.3251 39.625 54.6251 39.325 55.0751 39.325C55.5251 39.325 55.8251 39.625 55.8251 40.075V41.425C55.8251 41.875 55.5251 42.175 55.0751 42.175ZM62.0501 44.65H61.9751C61.0001 44.65 60.1001 44.275 59.4251 43.6C58.9001 43.075 58.7501 42.25 59.0501 41.5C59.3501 40.75 60.1001 40.3 60.8501 40.3H62.0501C63.1751 40.3 64.0001 41.125 64.0001 42.25V42.7C64.0001 43.825 63.1751 44.65 62.0501 44.65ZM60.8501 41.8C60.6251 41.8 60.4751 41.95 60.4001 42.1C60.3251 42.25 60.3251 42.4 60.4751 42.55C60.8501 42.925 61.4501 43.15 61.9751 43.15H62.0501C62.2751 43.15 62.5001 42.925 62.5001 42.7V42.25C62.5001 42.025 62.2751 41.8 62.0501 41.8H60.8501ZM54.4001 52.6C51.7751 52.6 49.6751 50.5 49.6751 47.875C49.6751 45.25 51.7751 43.15 54.4001 43.15C57.0251 43.15 59.1251 45.25 59.1251 47.875C59.1251 50.5 57.0251 52.6 54.4001 52.6ZM54.4001 44.65C52.6751 44.65 51.1751 46.15 51.1751 47.875C51.1751 49.6 52.6751 51.1 54.4001 51.1C56.1251 51.1 57.6251 49.6 57.6251 47.875C57.6251 46 56.2751 44.65 54.4001 44.65ZM27.7001 52.6C25.0751 52.6 22.9751 50.5 22.9751 47.875C22.9751 45.25 25.0751 43.15 27.7001 43.15C30.3251 43.15 32.4251 45.25 32.4251 47.875C32.4251 50.5 30.3251 52.6 27.7001 52.6ZM27.7001 44.65C25.9751 44.65 24.4751 46.15 24.4751 47.875C24.4751 49.6 25.9751 51.1 27.7001 51.1C29.4251 51.1 30.9251 49.6 30.9251 47.875C30.9251 46.075 29.5001 44.65 27.7001 44.65Z" fill="white"/>
</g>
<defs>
<clipPath id="clip0_100_18834">
<rect width="48" height="48" fill="white" transform="translate(16 16)"/>
</clipPath>
</defs>
</svg>
