<svg width="80" height="80" viewBox="0 0 80 80" fill="none" xmlns="http://www.w3.org/2000/svg">
<circle cx="40" cy="40" r="40" fill="#3931ED"/>
<path d="M47.4286 57.8856H23.9305C23.263 57.8848 22.6231 57.6193 22.1512 57.1473C21.6792 56.6752 21.4139 56.0352 21.4133 55.3677V27.6265C21.4133 27.1402 21.611 26.6637 21.9547 26.3207L29.3524 18.923C29.6995 18.5777 30.1687 18.3832 30.6583 18.3816H47.4286C48.0986 18.3823 48.7409 18.6488 49.2147 19.1226C49.6885 19.5963 49.9549 20.2387 49.9557 20.9087V31.3472C49.9557 31.5344 49.8813 31.714 49.7489 31.8464C49.6166 31.9788 49.437 32.0531 49.2498 32.0531C49.0626 32.0531 48.883 31.9788 48.7507 31.8464C48.6183 31.714 48.5439 31.5344 48.5439 31.3472V20.9087C48.5439 20.2938 48.0434 19.7934 47.4286 19.7934H30.659C30.5437 19.7938 30.4332 19.8394 30.3512 19.9204L22.9529 27.3195C22.8712 27.4014 22.8252 27.5123 22.8251 27.6279V55.3691C22.8251 55.9783 23.3206 56.4745 23.9305 56.4745H47.4293C47.725 56.4743 48.0085 56.3568 48.2175 56.1476C48.4265 55.9385 48.5439 55.6549 48.5439 55.3592V50.7308C48.5439 50.5436 48.6183 50.364 48.7507 50.2316C48.883 50.0993 49.0626 50.0249 49.2498 50.0249C49.437 50.0249 49.6166 50.0993 49.7489 50.2316C49.8813 50.364 49.9557 50.5436 49.9557 50.7308V55.3599C49.9549 56.0299 49.6884 56.6721 49.2147 57.1458C48.7409 57.6194 48.0986 57.885 47.4286 57.8856Z" fill="white"/>
<path d="M52.9825 32.691C52.7952 32.691 52.6157 32.6166 52.4833 32.4843C52.3509 32.3519 52.2766 32.1723 52.2766 31.9851V25.5609C52.2766 24.9355 51.7867 24.4456 51.1613 24.4456H49.2497C49.0625 24.4456 48.883 24.3712 48.7506 24.2388C48.6182 24.1065 48.5439 23.9269 48.5439 23.7397C48.5439 23.5525 48.6182 23.373 48.7506 23.2406C48.883 23.1082 49.0625 23.0338 49.2497 23.0338H51.1613C51.8313 23.0346 52.4736 23.3011 52.9474 23.7748C53.4211 24.2486 53.6876 24.8909 53.6883 25.5609V31.9844C53.6883 32.1716 53.614 32.3512 53.4816 32.4835C53.3492 32.6159 53.1697 32.691 52.9825 32.691ZM51.1613 61.6181H28.5836C27.9163 61.6173 27.2764 61.3519 26.8045 60.88C26.3326 60.4081 26.0672 59.7683 26.0665 59.1009V57.1795C26.0665 56.9923 26.1408 56.8127 26.2732 56.6803C26.4056 56.548 26.5851 56.4736 26.7723 56.4736H47.4293C47.7251 56.4736 48.0088 56.3561 48.2179 56.1469C48.4271 55.9378 48.5446 55.6541 48.5446 55.3583V50.7298C48.5446 50.5426 48.6189 50.3631 48.7513 50.2307C48.8837 50.0983 49.0632 50.0239 49.2505 50.0239C49.4377 50.0239 49.6172 50.0983 49.7496 50.2307C49.882 50.3631 49.9563 50.5426 49.9563 50.7298V55.359C49.9556 56.0289 49.6891 56.6712 49.2153 57.1448C48.7415 57.6185 48.0992 57.8848 47.4293 57.8854H27.4775V59.1009C27.4775 59.7101 27.973 60.2063 28.5829 60.2063H51.1613C51.7761 60.2063 52.2766 59.7101 52.2766 59.1009V50.0931C52.2766 49.9059 52.3509 49.7264 52.4833 49.594C52.6157 49.4616 52.7952 49.3872 52.9825 49.3872C53.1697 49.3872 53.3492 49.4616 53.4816 49.594C53.614 49.7264 53.6883 49.9059 53.6883 50.0931V59.1002C53.6865 59.769 53.4193 60.4097 52.9456 60.8818C52.4718 61.3538 51.8301 61.6186 51.1613 61.6181ZM29.3368 29.427H22.1177C21.9305 29.427 21.751 29.3526 21.6186 29.2203C21.4862 29.0879 21.4119 28.9083 21.4119 28.7211V27.6312C21.4119 27.1442 21.6095 26.667 21.954 26.3239L29.3488 18.9284C29.52 18.7563 29.7236 18.6199 29.9479 18.5271C30.1722 18.4342 30.4127 18.3869 30.6554 18.3877H31.746C31.9332 18.3877 32.1127 18.4621 32.2451 18.5945C32.3775 18.7268 32.4519 18.9064 32.4519 19.0936V26.3119C32.4509 27.1378 32.1224 27.9296 31.5385 28.5136C30.9545 29.0976 30.1627 29.4261 29.3368 29.427ZM22.8236 28.0152H29.3368C29.7884 28.0147 30.2213 27.835 30.5406 27.5157C30.8599 27.1964 31.0395 26.7635 31.0401 26.3119V19.7995H30.6554C30.5983 19.7994 30.5417 19.8106 30.4889 19.8324C30.4361 19.8542 30.3881 19.8862 30.3476 19.9265L22.9507 27.3221C22.869 27.404 22.8231 27.5149 22.8229 27.6305L22.8236 28.0152ZM35.6841 53.5879H26.0749C25.8877 53.5879 25.7082 53.5136 25.5758 53.3812C25.4434 53.2488 25.369 53.0693 25.369 52.8821C25.369 52.6948 25.4434 52.5153 25.5758 52.3829C25.7082 52.2505 25.8877 52.1762 26.0749 52.1762H35.6841C35.8713 52.1762 36.0509 52.2505 36.1832 52.3829C36.3156 52.5153 36.39 52.6948 36.39 52.8821C36.39 53.0693 36.3156 53.2488 36.1832 53.3812C36.0509 53.5136 35.8713 53.5879 35.6841 53.5879ZM35.6841 49.7966H26.0749C25.8877 49.7966 25.7082 49.7223 25.5758 49.5899C25.4434 49.4575 25.369 49.278 25.369 49.0908C25.369 48.9036 25.4434 48.724 25.5758 48.5916C25.7082 48.4593 25.8877 48.3849 26.0749 48.3849H35.6841C35.8713 48.3849 36.0509 48.4593 36.1832 48.5916C36.3156 48.724 36.39 48.9036 36.39 49.0908C36.39 49.278 36.3156 49.4575 36.1832 49.5899C36.0509 49.7223 35.8713 49.7966 35.6841 49.7966ZM35.6841 46.0046H26.0749C25.8877 46.0046 25.7082 45.9303 25.5758 45.7979C25.4434 45.6655 25.369 45.486 25.369 45.2988C25.369 45.1116 25.4434 44.932 25.5758 44.7996C25.7082 44.6673 25.8877 44.5929 26.0749 44.5929H35.6841C35.8713 44.5929 36.0509 44.6673 36.1832 44.7996C36.3156 44.932 36.39 45.1116 36.39 45.2988C36.39 45.486 36.3156 45.6655 36.1832 45.7979C36.0509 45.9303 35.8713 46.0046 35.6841 46.0046ZM35.6841 42.2126H26.0749C25.8877 42.2126 25.7082 42.1383 25.5758 42.0059C25.4434 41.8735 25.369 41.694 25.369 41.5068C25.369 41.3196 25.4434 41.14 25.5758 41.0076C25.7082 40.8753 25.8877 40.8009 26.0749 40.8009H35.6841C35.8713 40.8009 36.0509 40.8753 36.1832 41.0076C36.3156 41.14 36.39 41.3196 36.39 41.5068C36.39 41.694 36.3156 41.8735 36.1832 42.0059C36.0509 42.1383 35.8713 42.2126 35.6841 42.2126ZM35.6841 38.4206H26.0749C25.8877 38.4206 25.7082 38.3463 25.5758 38.2139C25.4434 38.0815 25.369 37.902 25.369 37.7148C25.369 37.5276 25.4434 37.348 25.5758 37.2156C25.7082 37.0833 25.8877 37.0089 26.0749 37.0089H35.6841C35.8713 37.0089 36.0509 37.0833 36.1832 37.2156C36.3156 37.348 36.39 37.5276 36.39 37.7148C36.39 37.902 36.3156 38.0815 36.1832 38.2139C36.0509 38.3463 35.8713 38.4206 35.6841 38.4206ZM35.6841 34.6279H26.0749C25.8877 34.6279 25.7082 34.5536 25.5758 34.4212C25.4434 34.2888 25.369 34.1093 25.369 33.9221C25.369 33.7348 25.4434 33.5553 25.5758 33.4229C25.7082 33.2905 25.8877 33.2162 26.0749 33.2162H35.6841C35.8713 33.2162 36.0509 33.2905 36.1832 33.4229C36.3156 33.5553 36.39 33.7348 36.39 33.9221C36.39 34.1093 36.3156 34.2888 36.1832 34.4212C36.0509 34.5536 35.8713 34.6279 35.6841 34.6279Z" fill="white"/>
<path d="M48.8778 51.4422C46.0966 51.4422 43.4835 50.3601 41.519 48.3949C40.5501 47.4313 39.7822 46.2849 39.2599 45.0221C38.7376 43.7594 38.4714 42.4054 38.4766 41.0389C38.4739 39.6723 38.742 38.3186 39.2654 37.0562C39.7888 35.7937 40.5572 34.6475 41.5261 33.6836C45.5799 29.6312 52.1757 29.6312 56.2296 33.6836C60.287 37.7425 60.2912 44.341 56.2373 48.3942C55.2732 49.3637 54.1262 50.1324 52.8629 50.6556C51.5997 51.1788 50.2451 51.4461 48.8778 51.4422ZM48.8778 32.0552C46.5766 32.0552 44.2762 32.9305 42.5249 34.6825C41.6872 35.5155 41.0228 36.5063 40.5701 37.5975C40.1175 38.6888 39.8856 39.8589 39.8877 41.0403C39.8833 42.2212 40.1134 43.3911 40.5648 44.4823C41.0162 45.5735 41.6798 46.5642 42.5171 47.3968C43.3505 48.2346 44.3418 48.8988 45.4336 49.3508C46.5255 49.8029 47.6961 50.0339 48.8778 50.0305C50.0596 50.0339 51.2304 49.8029 52.3223 49.3509C53.4143 48.8988 54.4057 48.2346 55.2392 47.3968C58.7425 43.8935 58.7383 38.19 55.2308 34.6825C54.3971 33.8477 53.4066 33.1859 52.3164 32.735C51.2262 32.2841 50.0576 32.0531 48.8778 32.0552Z" fill="white"/>
<path d="M48.8776 47.8C47.9888 47.8025 47.1083 47.6288 46.2871 47.2888C45.4658 46.9488 44.7201 46.4493 44.0932 45.8193C41.4602 43.1864 41.4638 38.8974 44.1016 36.2595C45.3793 34.9833 47.0755 34.2795 48.8776 34.2795C50.6798 34.2795 52.3767 34.9833 53.6544 36.2595C56.2915 38.8974 56.2951 43.1864 53.6621 45.8193C53.0352 46.4495 52.2896 46.9491 51.4683 47.2892C50.6471 47.6293 49.7665 47.8025 48.8776 47.8ZM48.8776 35.6913C47.4518 35.6913 46.1106 36.2482 45.0998 37.2584C43.0125 39.345 43.0089 42.7381 45.0913 44.8212C46.1021 45.832 47.4475 46.3882 48.8776 46.3882C50.3078 46.3882 51.6532 45.832 52.664 44.8212C54.7464 42.7381 54.7428 39.345 52.6562 37.2577C52.1612 36.7598 51.5724 36.365 50.9238 36.0961C50.2752 35.8273 49.5797 35.6897 48.8776 35.6913ZM56.6762 52.5414C56.489 52.5414 56.3095 52.467 56.1772 52.3346L53.5732 49.7299C53.4982 49.655 53.4411 49.5642 53.406 49.4642C53.371 49.3643 53.3588 49.2577 53.3706 49.1524C53.3823 49.0471 53.4176 48.9458 53.4738 48.856C53.53 48.7662 53.6057 48.6902 53.6953 48.6337C54.2538 48.2801 54.7709 47.865 55.2369 47.3962C55.7029 46.9327 56.1156 46.4184 56.4673 45.8631C56.5237 45.7733 56.5996 45.6973 56.6895 45.6409C56.7793 45.5845 56.8806 45.549 56.986 45.5371C57.0914 45.5253 57.1981 45.5373 57.2982 45.5723C57.3983 45.6074 57.4893 45.6645 57.5642 45.7395L60.1682 48.3428C60.3006 48.4752 60.3749 48.6547 60.3749 48.8419C60.3749 49.0291 60.3006 49.2086 60.1682 49.341L57.1753 52.3339C57.1098 52.3996 57.032 52.4517 56.9464 52.4873C56.8608 52.5229 56.769 52.5413 56.6762 52.5414ZM55.1678 49.3282L56.6762 50.8374L58.6711 48.8419L57.1626 47.3348C56.5892 48.0851 55.9184 48.7554 55.1678 49.3282Z" fill="white"/>
<path d="M62.7866 58.7539C62.2869 58.7553 61.7919 58.6576 61.3302 58.4664C60.8686 58.2752 60.4495 57.9943 60.0972 57.64L56.1689 53.7118C55.8562 53.3983 55.6806 52.9736 55.6806 52.5308C55.6806 52.0881 55.8562 51.6634 56.1689 51.3499L59.1845 48.3351C59.498 48.0228 59.9225 47.8474 60.365 47.8474C60.8076 47.8474 61.2321 48.0228 61.5456 48.3351L65.4746 52.2633C66.1932 52.9819 66.5885 53.9362 66.5885 54.952C66.5885 55.9678 66.1932 56.9214 65.4746 57.64C65.1224 57.9942 64.7035 58.275 64.2422 58.4662C63.7808 58.6574 63.286 58.7552 62.7866 58.7539ZM60.3654 49.2577C60.3314 49.2575 60.2978 49.2642 60.2664 49.2771C60.235 49.2901 60.2065 49.3091 60.1826 49.3332L57.167 52.348C57.1187 52.3966 57.0915 52.4623 57.0915 52.5308C57.0915 52.5994 57.1187 52.6651 57.167 52.7137L61.096 56.6419C61.9995 57.5454 63.5736 57.5454 64.4764 56.6419C64.9282 56.1901 65.1767 55.5901 65.1767 54.952C65.1767 54.3139 64.9282 53.7132 64.4764 53.2614L60.5482 49.3332C60.5242 49.3091 60.4955 49.2899 60.464 49.277C60.4325 49.264 60.3995 49.2574 60.3654 49.2577ZM47.759 43.6113C47.5718 43.6113 47.3923 43.5369 47.26 43.4045L45.916 42.0598C45.8486 41.9947 45.7948 41.9168 45.7578 41.8306C45.7208 41.7445 45.7013 41.6519 45.7005 41.5582C45.6997 41.4644 45.7176 41.3715 45.753 41.2847C45.7885 41.198 45.841 41.1192 45.9072 41.0529C45.9735 40.9866 46.0523 40.9342 46.1391 40.8987C46.2258 40.8632 46.3188 40.8454 46.4125 40.8462C46.5062 40.847 46.5989 40.8665 46.685 40.9035C46.7711 40.9405 46.849 40.9942 46.9141 41.0617L47.759 41.9073L50.8423 38.8247C50.9075 38.7573 50.9853 38.7035 51.0715 38.6665C51.1576 38.6295 51.2502 38.6101 51.3439 38.6092C51.4377 38.6084 51.5306 38.6263 51.6174 38.6618C51.7041 38.6973 51.7829 38.7497 51.8492 38.816C51.9155 38.8822 51.9679 38.9611 52.0034 39.0478C52.0389 39.1346 52.0567 39.2275 52.0559 39.3212C52.0551 39.415 52.0356 39.5076 51.9986 39.5937C51.9616 39.6798 51.9079 39.7577 51.8405 39.8228L48.2581 43.4045C48.1258 43.5369 47.9462 43.6113 47.759 43.6113ZM36.592 26.7428C36.4048 26.7428 36.2253 26.6684 36.0929 26.536L35.0341 25.4765C34.9667 25.4114 34.9129 25.3335 34.8759 25.2473C34.8389 25.1612 34.8194 25.0686 34.8186 24.9749C34.8178 24.8811 34.8357 24.7882 34.8712 24.7014C34.9067 24.6147 34.9591 24.5359 35.0254 24.4696C35.0916 24.4033 35.1704 24.3509 35.2572 24.3154C35.3439 24.2799 35.4369 24.2621 35.5306 24.2629C35.6243 24.2637 35.717 24.2832 35.8031 24.3202C35.8892 24.3572 35.9671 24.4109 36.0322 24.4784L36.592 25.0388L38.9143 22.7165C38.9795 22.6491 39.0573 22.5953 39.1435 22.5583C39.2296 22.5213 39.3222 22.5018 39.4159 22.501C39.5097 22.5002 39.6026 22.518 39.6894 22.5535C39.7761 22.589 39.8549 22.6414 39.9212 22.7077C39.9875 22.774 40.0399 22.8528 40.0754 22.9396C40.1109 23.0263 40.1287 23.1193 40.1279 23.213C40.1271 23.3067 40.1076 23.3993 40.0706 23.4855C40.0336 23.5716 39.9799 23.6495 39.9125 23.7146L37.091 26.536C36.9587 26.6684 36.7792 26.7428 36.592 26.7428ZM45.4635 26.2875H41.5226C41.3354 26.2875 41.1558 26.2132 41.0234 26.0808C40.8911 25.9484 40.8167 25.7689 40.8167 25.5817C40.8167 25.3944 40.8911 25.2149 41.0234 25.0825C41.1558 24.9501 41.3354 24.8758 41.5226 24.8758H45.4635C45.6507 24.8758 45.8303 24.9501 45.9626 25.0825C46.095 25.2149 46.1694 25.3944 46.1694 25.5817C46.1694 25.7689 46.095 25.9484 45.9626 26.0808C45.8303 26.2132 45.6507 26.2875 45.4635 26.2875Z" fill="white"/>
</svg>
