<svg width="34" height="34" viewBox="0 0 34 34" fill="none" xmlns="http://www.w3.org/2000/svg">
<path d="M17.0018 12.0002C15.6757 12.0002 14.404 12.5269 13.4663 13.4646C12.5286 14.4023 12.0018 15.6741 12.0018 17.0002C12.0018 18.3262 12.5286 19.598 13.4663 20.5357C14.404 21.4734 15.6757 22.0002 17.0018 22.0002C18.3279 22.0002 19.5997 21.4734 20.5374 20.5357C21.475 19.598 22.0018 18.3262 22.0018 17.0002C22.0018 15.6741 21.475 14.4023 20.5374 13.4646C19.5997 12.5269 18.3279 12.0002 17.0018 12.0002ZM17.0018 8.66683C19.212 8.66683 21.3316 9.5448 22.8944 11.1076C24.4572 12.6704 25.3352 14.79 25.3352 17.0002C25.3352 19.2103 24.4572 21.3299 22.8944 22.8927C21.3316 24.4555 19.212 25.3335 17.0018 25.3335C14.7917 25.3335 12.6721 24.4555 11.1093 22.8927C9.54647 21.3299 8.66849 19.2103 8.66849 17.0002C8.66849 14.79 9.54647 12.6704 11.1093 11.1076C12.6721 9.5448 14.7917 8.66683 17.0018 8.66683ZM27.8352 8.25016C27.8352 8.8027 27.6157 9.3326 27.225 9.7233C26.8343 10.114 26.3044 10.3335 25.7518 10.3335C25.1993 10.3335 24.6694 10.114 24.2787 9.7233C23.888 9.3326 23.6685 8.8027 23.6685 8.25016C23.6685 7.69763 23.888 7.16772 24.2787 6.77702C24.6694 6.38632 25.1993 6.16683 25.7518 6.16683C26.3044 6.16683 26.8343 6.38632 27.225 6.77702C27.6157 7.16772 27.8352 7.69763 27.8352 8.25016ZM17.0018 3.66683C12.8785 3.66683 12.2052 3.6785 10.2868 3.7635C8.98016 3.82516 8.10349 4.00016 7.29016 4.31683C6.60952 4.56673 5.99418 4.96726 5.49016 5.4885C4.96851 5.99249 4.56742 6.6078 4.31683 7.28849C4.00016 8.10516 3.82516 8.98016 3.76516 10.2852C3.6785 12.1252 3.66683 12.7685 3.66683 17.0002C3.66683 21.1252 3.6785 21.7968 3.7635 23.7152C3.82516 25.0202 4.00016 25.8985 4.31516 26.7102C4.5985 27.4352 4.93183 27.9568 5.48516 28.5102C6.04683 29.0702 6.5685 29.4052 7.28516 29.6818C8.10849 30.0002 8.98516 30.1768 10.2852 30.2368C12.1252 30.3235 12.7685 30.3335 17.0002 30.3335C21.1252 30.3335 21.7968 30.3218 23.7152 30.2368C25.0185 30.1752 25.8952 30.0002 26.7102 29.6852C27.3902 29.434 28.0053 29.0337 28.5102 28.5135C29.0718 27.9535 29.4068 27.4318 29.6835 26.7135C30.0002 25.8935 30.1768 25.0168 30.2368 23.7135C30.3235 21.8752 30.3335 21.2302 30.3335 17.0002C30.3335 12.8768 30.3218 12.2035 30.2368 10.2852C30.1752 8.98183 29.9985 8.10183 29.6835 7.28849C29.4323 6.60852 29.0319 5.99347 28.5118 5.4885C28.008 4.96657 27.3927 4.56544 26.7118 4.31516C25.8952 3.9985 25.0185 3.8235 23.7152 3.7635C21.8768 3.67683 21.2335 3.66683 17.0002 3.66683M17.0002 0.333496C21.5285 0.333496 22.0935 0.350163 23.8718 0.433496C25.6452 0.516829 26.8552 0.795163 27.9168 1.2085C29.0168 1.63183 29.9435 2.20516 30.8702 3.13016C31.7176 3.96332 32.3734 4.97114 32.7918 6.08349C33.2035 7.14516 33.4835 8.35516 33.5668 10.1302C33.6452 11.9068 33.6668 12.4718 33.6668 17.0002C33.6668 21.5285 33.6502 22.0935 33.5668 23.8702C33.4835 25.6452 33.2035 26.8535 32.7918 27.9168C32.3746 29.0298 31.7187 30.0378 30.8702 30.8702C30.0368 31.7174 29.029 32.3731 27.9168 32.7918C26.8552 33.2035 25.6452 33.4835 23.8718 33.5668C22.0935 33.6452 21.5285 33.6668 17.0002 33.6668C12.4718 33.6668 11.9068 33.6502 10.1285 33.5668C8.35516 33.4835 7.14683 33.2035 6.08349 32.7918C4.97071 32.3743 3.96271 31.7184 3.13016 30.8702C2.28255 30.0371 1.62676 29.0292 1.2085 27.9168C0.795163 26.8552 0.516829 25.6452 0.433496 23.8702C0.353496 22.0935 0.333496 21.5285 0.333496 17.0002C0.333496 12.4718 0.350163 11.9068 0.433496 10.1302C0.516829 8.35516 0.795163 7.14683 1.2085 6.08349C1.62556 4.97046 2.2815 3.96236 3.13016 3.13016C3.96295 2.28221 4.97088 1.62638 6.08349 1.2085C7.14516 0.795163 8.35349 0.516829 10.1285 0.433496C11.9085 0.355163 12.4735 0.333496 17.0018 0.333496" fill="#010B12"/>
</svg>
