<svg width="38" height="34" viewBox="0 0 38 34" fill="none" xmlns="http://www.w3.org/2000/svg">
<path d="M18.9752 22.6805L24.3785 28.8238C26.3785 31.0988 27.3802 32.2371 28.4285 31.9588C29.4752 31.6821 29.8352 30.1855 30.5535 27.1905L34.5369 10.5771C35.6452 5.96381 36.1985 3.65881 34.9685 2.52047C33.7385 1.38214 31.6069 2.22881 27.3435 3.92047L7.56688 11.7755C4.15689 13.1305 2.45189 13.8071 2.34355 14.9705C2.33079 15.089 2.33079 15.2086 2.34355 15.3271C2.44855 16.4921 4.15022 17.1738 7.55688 18.5388C9.09855 19.1571 9.87022 19.4671 10.4236 20.0588C10.4858 20.1255 10.5458 20.1944 10.6036 20.2655C11.1136 20.8988 11.3302 21.7321 11.7652 23.3921L12.5802 26.5038C13.0019 28.1205 13.2136 28.9305 13.7686 29.0405C14.3236 29.1505 14.8052 28.4805 15.7702 27.1388L18.9752 22.6805ZM18.9752 22.6805L18.4469 22.1305C17.8435 21.5005 17.5419 21.1871 17.5419 20.7971C17.5419 20.4071 17.8419 20.0921 18.4469 19.4638L24.4019 13.2571" stroke="#010B12" stroke-width="3" stroke-linecap="round" stroke-linejoin="round"/>
</svg>
