<svg width="40" height="40" viewBox="0 0 40 40" fill="none" xmlns="http://www.w3.org/2000/svg">
<path fill-rule="evenodd" clip-rule="evenodd" d="M23.3335 5C23.7755 5 24.1995 5.17559 24.512 5.48816C24.8246 5.80072 25.0002 6.22464 25.0002 6.66667C25.0011 8.20321 25.5323 9.69235 26.5039 10.8826C27.4756 12.0729 28.8283 12.8915 30.3335 13.2C30.7667 13.2884 31.147 13.5453 31.3908 13.9141C31.6346 14.2829 31.7219 14.7335 31.6335 15.1667C31.5451 15.5999 31.2882 15.9802 30.9194 16.224C30.5506 16.4678 30.1 16.5551 29.6668 16.4667C27.9302 16.1117 26.3194 15.3006 25.0002 14.1167V28.3333C25.0002 29.9815 24.5114 31.5927 23.5957 32.9631C22.6801 34.3335 21.3786 35.4016 19.8559 36.0323C18.3331 36.6631 16.6576 36.8281 15.0411 36.5065C13.4246 36.185 11.9397 35.3913 10.7743 34.2259C9.60884 33.0605 8.81517 31.5756 8.49362 29.9591C8.17208 28.3426 8.33711 26.667 8.96784 25.1443C9.59857 23.6216 10.6667 22.3201 12.0371 21.4044C13.4075 20.4887 15.0187 20 16.6668 20C17.1089 20 17.5328 20.1756 17.8453 20.4882C18.1579 20.8007 18.3335 21.2246 18.3335 21.6667C18.3335 22.1087 18.1579 22.5326 17.8453 22.8452C17.5328 23.1577 17.1089 23.3333 16.6668 23.3333C15.6779 23.3333 14.7112 23.6266 13.889 24.176C13.0667 24.7254 12.4259 25.5063 12.0474 26.4199C11.669 27.3335 11.57 28.3389 11.7629 29.3088C11.9558 30.2787 12.432 31.1696 13.1313 31.8689C13.8306 32.5681 14.7215 33.0443 15.6914 33.2373C16.6613 33.4302 17.6666 33.3312 18.5803 32.9527C19.4939 32.5743 20.2748 31.9334 20.8242 31.1112C21.3736 30.2889 21.6668 29.3222 21.6668 28.3333V6.66667C21.6668 6.22464 21.8424 5.80072 22.155 5.48816C22.4676 5.17559 22.8915 5 23.3335 5Z" fill="#010B12"/>
</svg>
