<svg width="34" height="34" viewBox="0 0 34 34" fill="none" xmlns="http://www.w3.org/2000/svg">
<path d="M28.7498 5.18311C27.2218 3.63965 25.4018 2.41589 23.3959 1.58319C21.39 0.750498 19.2384 0.325541 17.0665 0.333107C7.9665 0.333107 0.549838 7.74977 0.549838 16.8498C0.549838 19.7664 1.3165 22.5998 2.74984 25.0998L0.416504 33.6664L9.1665 31.3664C11.5832 32.6831 14.2998 33.3831 17.0665 33.3831C26.1665 33.3831 33.5832 25.9664 33.5832 16.8664C33.5832 12.4498 31.8665 8.29977 28.7498 5.18311ZM17.0665 30.5831C14.5998 30.5831 12.1832 29.9164 10.0665 28.6664L9.5665 28.3664L4.3665 29.7331L5.74984 24.6664L5.4165 24.1498C4.04608 21.9614 3.3184 19.4318 3.3165 16.8498C3.3165 9.28311 9.48317 3.11644 17.0498 3.11644C20.7165 3.11644 24.1665 4.54977 26.7498 7.14977C28.029 8.42305 29.0427 9.93754 29.7322 11.6055C30.4217 13.2734 30.7732 15.0616 30.7665 16.8664C30.7998 24.4331 24.6332 30.5831 17.0665 30.5831ZM24.5998 20.3164C24.1832 20.1164 22.1498 19.1164 21.7832 18.9664C21.3998 18.8331 21.1332 18.7664 20.8498 19.1664C20.5665 19.5831 19.7832 20.5164 19.5498 20.7831C19.3165 21.0664 19.0665 21.0998 18.6498 20.8831C18.2332 20.6831 16.8998 20.2331 15.3332 18.8331C14.0998 17.7331 13.2832 16.3831 13.0332 15.9664C12.7998 15.5498 12.9998 15.3331 13.2165 15.1164C13.3998 14.9331 13.6332 14.6331 13.8332 14.3998C14.0332 14.1664 14.1165 13.9831 14.2498 13.7164C14.3832 13.4331 14.3165 13.1998 14.2165 12.9998C14.1165 12.7998 13.2832 10.7664 12.9498 9.93311C12.6165 9.13311 12.2665 9.23311 12.0165 9.21644H11.2165C10.9332 9.21644 10.4998 9.31644 10.1165 9.73311C9.74984 10.1498 8.68317 11.1498 8.68317 13.1831C8.68317 15.2164 10.1665 17.1831 10.3665 17.4498C10.5665 17.7331 13.2832 21.8998 17.4165 23.6831C18.3998 24.1164 19.1665 24.3664 19.7665 24.5498C20.7498 24.8664 21.6498 24.8164 22.3665 24.7164C23.1665 24.5998 24.8165 23.7164 25.1498 22.7498C25.4998 21.7831 25.4998 20.9664 25.3832 20.7831C25.2665 20.5998 25.0165 20.5164 24.5998 20.3164Z" fill="#010B12"/>
</svg>
