<svg width="36" height="26" viewBox="0 0 36 26" fill="none" xmlns="http://www.w3.org/2000/svg">
<path d="M35.5 12.8901C35.5 12.8042 35.5 12.7065 35.4961 12.5933C35.4922 12.2769 35.4844 11.9214 35.4766 11.5425C35.4453 10.4526 35.3906 9.3667 35.3047 8.34326C35.1875 6.9331 35.0156 5.75732 34.7812 4.87451C34.5339 3.95322 34.0491 3.11298 33.3753 2.43778C32.7014 1.76258 31.8622 1.27606 30.9414 1.02686C29.8359 0.72998 27.6719 0.546387 24.625 0.433105C23.1758 0.378418 21.625 0.343261 20.0742 0.32373C19.5312 0.315918 19.0273 0.312012 18.5742 0.308105H17.4258C16.9727 0.312012 16.4688 0.315918 15.9258 0.32373C14.375 0.343261 12.8242 0.378418 11.375 0.433105C8.32812 0.550293 6.16016 0.733886 5.05859 1.02686C4.1375 1.27545 3.29793 1.76176 2.624 2.43706C1.95007 3.11235 1.46547 3.95292 1.21875 4.87451C0.980469 5.75732 0.8125 6.9331 0.695312 8.34326C0.609375 9.3667 0.554687 10.4526 0.523437 11.5425C0.511719 11.9214 0.507812 12.2769 0.503906 12.5933C0.503906 12.7065 0.5 12.8042 0.5 12.8901V13.1089C0.5 13.1948 0.5 13.2925 0.503906 13.4058C0.507812 13.7222 0.515625 14.0776 0.523437 14.4565C0.554687 15.5464 0.609375 16.6323 0.695312 17.6558C0.8125 19.0659 0.984375 20.2417 1.21875 21.1245C1.71875 22.9956 3.1875 24.4722 5.05859 24.9722C6.16016 25.269 8.32812 25.4526 11.375 25.5659C12.8242 25.6206 14.375 25.6558 15.9258 25.6753C16.4688 25.6831 16.9727 25.687 17.4258 25.6909H18.5742C19.0273 25.687 19.5312 25.6831 20.0742 25.6753C21.625 25.6558 23.1758 25.6206 24.625 25.5659C27.6719 25.4487 29.8398 25.2651 30.9414 24.9722C32.8125 24.4722 34.2812 22.9995 34.7812 21.1245C35.0195 20.2417 35.1875 19.0659 35.3047 17.6558C35.3906 16.6323 35.4453 15.5464 35.4766 14.4565C35.4883 14.0776 35.4922 13.7222 35.4961 13.4058C35.4961 13.2925 35.5 13.1948 35.5 13.1089V12.8901ZM32.6875 13.0933C32.6875 13.1753 32.6875 13.2651 32.6836 13.3706C32.6797 13.6753 32.6719 14.0112 32.6641 14.3745C32.6367 15.4136 32.582 16.4526 32.5 17.4175C32.3945 18.6753 32.2461 19.7065 32.0625 20.398C31.8203 21.3003 31.1094 22.0151 30.2109 22.2534C29.3906 22.4722 27.3242 22.6479 24.5156 22.7534C23.0938 22.8081 21.5625 22.8433 20.0352 22.8628C19.5 22.8706 19.0039 22.8745 18.5586 22.8745H17.4414L15.9648 22.8628C14.4375 22.8433 12.9102 22.8081 11.4844 22.7534C8.67578 22.644 6.60547 22.4722 5.78906 22.2534C4.89062 22.0112 4.17969 21.3003 3.9375 20.398C3.75391 19.7065 3.60547 18.6753 3.5 17.4175C3.41797 16.4526 3.36719 15.4136 3.33594 14.3745C3.32422 14.0112 3.32031 13.6714 3.31641 13.3706C3.31641 13.2651 3.3125 13.1714 3.3125 13.0933V12.9058C3.3125 12.8237 3.3125 12.7339 3.31641 12.6284C3.32031 12.3237 3.32813 11.9878 3.33594 11.6245C3.36328 10.5854 3.41797 9.54639 3.5 8.58154C3.60547 7.32373 3.75391 6.29248 3.9375 5.60107C4.17969 4.69873 4.89062 3.98389 5.78906 3.74561C6.60938 3.52686 8.67578 3.35107 11.4844 3.2456C12.9063 3.19092 14.4375 3.15576 15.9648 3.13623C16.5 3.12842 16.9961 3.12451 17.4414 3.12451H18.5586L20.0352 3.13623C21.5625 3.15576 23.0898 3.19092 24.5156 3.2456C27.3242 3.35498 29.3945 3.52686 30.2109 3.74561C31.1094 3.98779 31.8203 4.69873 32.0625 5.60107C32.2461 6.29248 32.3945 7.32373 32.5 8.58154C32.582 9.54639 32.6328 10.5854 32.6641 11.6245C32.6758 11.9878 32.6797 12.3276 32.6836 12.6284C32.6836 12.7339 32.6875 12.8276 32.6875 12.9058V13.0933ZM14.5234 18.2339L23.5859 12.9604L14.5234 7.76514V18.2339Z" fill="#010B12"/>
</svg>
