<svg width="81" height="80" viewBox="0 0 81 80" fill="none" xmlns="http://www.w3.org/2000/svg">
<circle cx="40.5" cy="40" r="40" fill="#E9F4FA"/>
<path d="M42.2418 56.3636H25.9545C25.0866 56.3636 24.2541 56.0188 23.6404 55.4051C23.0266 54.7913 22.6818 53.9589 22.6818 53.0909V30.1818H58.6818V37.0764C58.6818 37.3657 58.7967 37.6432 59.0013 37.8477C59.2059 38.0523 59.4834 38.1673 59.7727 38.1673C60.062 38.1673 60.3395 38.0523 60.5441 37.8477C60.7487 37.6432 60.8636 37.3657 60.8636 37.0764V24.7273C60.8619 23.2812 60.2867 21.8948 59.2641 20.8722C58.2416 19.8497 56.8552 19.2745 55.4091 19.2727H53.2273C53.2273 18.4047 52.8825 17.5723 52.2687 16.9586C51.655 16.3448 50.8225 16 49.9545 16C49.0866 16 48.2541 16.3448 47.6404 16.9586C47.0266 17.5723 46.6818 18.4047 46.6818 19.2727H34.6818C34.6818 18.4047 34.337 17.5723 33.7233 16.9586C33.1095 16.3448 32.2771 16 31.4091 16C30.5411 16 29.7087 16.3448 29.0949 16.9586C28.4812 17.5723 28.1364 18.4047 28.1364 19.2727H25.9545C24.5084 19.2745 23.1221 19.8497 22.0995 20.8722C21.077 21.8948 20.5017 23.2812 20.5 24.7273V53.0909C20.5017 54.537 21.077 55.9234 22.0995 56.9459C23.1221 57.9685 24.5084 58.5437 25.9545 58.5454H42.2418C42.5311 58.5454 42.8086 58.4305 43.0132 58.2259C43.2178 58.0213 43.3327 57.7439 43.3327 57.4545C43.3327 57.1652 43.2178 56.8877 43.0132 56.6831C42.8086 56.4786 42.5311 56.3636 42.2418 56.3636ZM48.8636 19.2727C48.8636 18.9834 48.9786 18.7059 49.1832 18.5013C49.3877 18.2968 49.6652 18.1818 49.9545 18.1818C50.2439 18.1818 50.5213 18.2968 50.7259 18.5013C50.9305 18.7059 51.0455 18.9834 51.0455 19.2727V21.4545C51.0455 21.7439 50.9305 22.0213 50.7259 22.2259C50.5213 22.4305 50.2439 22.5455 49.9545 22.5455C49.6652 22.5455 49.3877 22.4305 49.1832 22.2259C48.9786 22.0213 48.8636 21.7439 48.8636 21.4545V19.2727ZM30.3182 19.2727C30.3182 18.9834 30.4331 18.7059 30.6377 18.5013C30.8423 18.2968 31.1198 18.1818 31.4091 18.1818C31.6984 18.1818 31.9759 18.2968 32.1805 18.5013C32.3851 18.7059 32.5 18.9834 32.5 19.2727V21.4545C32.5 21.7439 32.3851 22.0213 32.1805 22.2259C31.9759 22.4305 31.6984 22.5455 31.4091 22.5455C31.1198 22.5455 30.8423 22.4305 30.6377 22.2259C30.4331 22.0213 30.3182 21.7439 30.3182 21.4545V19.2727ZM22.6818 24.7273C22.6818 23.8593 23.0266 23.0269 23.6404 22.4131C24.2541 21.7993 25.0866 21.4545 25.9545 21.4545H28.1364C28.1364 22.3225 28.4812 23.155 29.0949 23.7687C29.7087 24.3825 30.5411 24.7273 31.4091 24.7273C32.2771 24.7273 33.1095 24.3825 33.7233 23.7687C34.337 23.155 34.6818 22.3225 34.6818 21.4545H46.6818C46.6818 22.3225 47.0266 23.155 47.6404 23.7687C48.2541 24.3825 49.0866 24.7273 49.9545 24.7273C50.8225 24.7273 51.655 24.3825 52.2687 23.7687C52.8825 23.155 53.2273 22.3225 53.2273 21.4545H55.4091C56.2771 21.4545 57.1095 21.7993 57.7233 22.4131C58.337 23.0269 58.6818 23.8593 58.6818 24.7273V28H22.6818V24.7273Z" fill="#010B12"/>
<path d="M33.591 35.6363C33.591 35.0576 33.3611 34.5027 32.9519 34.0935C32.5427 33.6843 31.9878 33.4545 31.4091 33.4545H28.1364C27.5578 33.4545 27.0028 33.6843 26.5936 34.0935C26.1845 34.5027 25.9546 35.0576 25.9546 35.6363V38.909C25.9546 39.4877 26.1845 40.0426 26.5936 40.4518C27.0028 40.861 27.5578 41.0908 28.1364 41.0908H31.4091C31.9878 41.0908 32.5427 40.861 32.9519 40.4518C33.3611 40.0426 33.591 39.4877 33.591 38.909V35.6363ZM28.1364 38.909V35.6363H31.4091V38.909H28.1364ZM44.5 35.6363C44.5 35.0576 44.2702 34.5027 43.861 34.0935C43.4518 33.6843 42.8969 33.4545 42.3182 33.4545H39.0455C38.4668 33.4545 37.9119 33.6843 37.5027 34.0935C37.0935 34.5027 36.8637 35.0576 36.8637 35.6363V38.909C36.8637 39.4877 37.0935 40.0426 37.5027 40.4518C37.9119 40.861 38.4668 41.0908 39.0455 41.0908H42.3182C42.8969 41.0908 43.4518 40.861 43.861 40.4518C44.2702 40.0426 44.5 39.4877 44.5 38.909V35.6363ZM39.0455 38.909V35.6363H42.3182V38.909H39.0455ZM54.3182 37.9708C54.6075 37.9708 54.885 37.8559 55.0896 37.6513C55.2942 37.4467 55.4091 37.1692 55.4091 36.8799V35.6363C55.4091 35.0576 55.1793 34.5027 54.7701 34.0935C54.3609 33.6843 53.806 33.4545 53.2273 33.4545H49.9546C49.3759 33.4545 48.821 33.6843 48.4118 34.0935C48.0026 34.5027 47.7728 35.0576 47.7728 35.6363V38.7781C47.7728 39.0674 47.8877 39.3449 48.0923 39.5495C48.2969 39.7541 48.5743 39.869 48.8637 39.869C49.153 39.869 49.4305 39.7541 49.6351 39.5495C49.8396 39.3449 49.9546 39.0674 49.9546 38.7781V35.6363H53.2273V36.8799C53.2273 37.1692 53.3422 37.4467 53.5468 37.6513C53.7514 37.8559 54.0289 37.9708 54.3182 37.9708ZM31.4091 44.3636H28.1364C27.5578 44.3636 27.0028 44.5934 26.5936 45.0026C26.1845 45.4118 25.9546 45.9667 25.9546 46.5454V49.8181C25.9546 50.3968 26.1845 50.9517 26.5936 51.3609C27.0028 51.7701 27.5578 51.9999 28.1364 51.9999H31.4091C31.9878 51.9999 32.5427 51.7701 32.9519 51.3609C33.3611 50.9517 33.591 50.3968 33.591 49.8181V46.5454C33.591 45.9667 33.3611 45.4118 32.9519 45.0026C32.5427 44.5934 31.9878 44.3636 31.4091 44.3636ZM28.1364 49.8181V46.5454H31.4091V49.8181H28.1364ZM43.0709 44.5065C42.8314 44.4114 42.5759 44.3629 42.3182 44.3636H39.0455C38.4668 44.3636 37.9119 44.5934 37.5027 45.0026C37.0935 45.4118 36.8637 45.9667 36.8637 46.5454V49.8181C36.8637 50.3968 37.0935 50.9517 37.5027 51.3609C37.9119 51.7701 38.4668 51.9999 39.0455 51.9999H41.2709C41.5603 51.9999 41.8378 51.885 42.0423 51.6804C42.2469 51.4758 42.3619 51.1983 42.3619 50.909C42.3619 50.6197 42.2469 50.3422 42.0423 50.1376C41.8378 49.933 41.5603 49.8181 41.2709 49.8181H39.0455V46.5454L42.2637 46.5334C42.5319 46.6378 42.8306 46.632 43.0946 46.5172C43.3586 46.4024 43.5665 46.1879 43.673 45.9205C43.7795 45.653 43.776 45.3543 43.6632 45.0895C43.5505 44.8246 43.3376 44.615 43.0709 44.5065ZM56.5 39.9999C54.1267 39.9999 51.8066 40.7037 49.8332 42.0223C47.8598 43.3409 46.3217 45.215 45.4135 47.4077C44.5052 49.6004 44.2676 52.0132 44.7306 54.341C45.1936 56.6688 46.3365 58.807 48.0148 60.4852C49.693 62.1634 51.8312 63.3063 54.159 63.7693C56.4867 64.2324 58.8995 63.9947 61.0922 63.0865C63.2849 62.1782 65.1591 60.6402 66.4777 58.6668C67.7962 56.6934 68.5 54.3733 68.5 51.9999C68.4963 48.8185 67.2308 45.7684 64.9812 43.5188C62.7315 41.2692 59.6815 40.0037 56.5 39.9999ZM56.5 61.8181C54.5582 61.8181 52.6599 61.2423 51.0453 60.1634C49.4308 59.0846 48.1723 57.5512 47.4292 55.7572C46.6861 53.9631 46.4917 51.989 46.8705 50.0845C47.2493 48.1799 48.1844 46.4305 49.5575 45.0574C50.9306 43.6843 52.6801 42.7492 54.5846 42.3704C56.4891 41.9916 58.4633 42.186 60.2573 42.9291C62.0513 43.6722 63.5847 44.9306 64.6636 46.5452C65.7424 48.1598 66.3182 50.0581 66.3182 51.9999C66.3153 54.603 65.28 57.0986 63.4393 58.9392C61.5987 60.7799 59.1031 61.8152 56.5 61.8181Z" fill="#010B12"/>
<path d="M57.591 51.5484V46.5455C57.591 46.2562 57.4761 45.9787 57.2715 45.7741C57.0669 45.5695 56.7894 45.4546 56.5001 45.4546C56.2108 45.4546 55.9333 45.5695 55.7287 45.7741C55.5241 45.9787 55.4092 46.2562 55.4092 46.5455V52C55.4092 52.2893 55.5242 52.5668 55.7288 52.7713L57.9106 54.9531C58.1164 55.1519 58.3919 55.2618 58.678 55.2593C58.964 55.2568 59.2376 55.1421 59.4399 54.9398C59.6422 54.7376 59.7569 54.464 59.7594 54.1779C59.7619 53.8919 59.6519 53.6163 59.4532 53.4106L57.591 51.5484Z" fill="#3931ED"/>
</svg>
