<svg width="80" height="80" viewBox="0 0 80 80" fill="none" xmlns="http://www.w3.org/2000/svg">
<circle cx="40" cy="40" r="40" fill="#E9F4FA"/>
<path d="M47.5841 52C47.0904 52 46.6079 51.8536 46.1974 51.5794C45.7869 51.3051 45.467 50.9153 45.2781 50.4592C45.0892 50.0031 45.0397 49.5013 45.1361 49.0171C45.2324 48.5329 45.4701 48.0882 45.8192 47.7391C46.1682 47.39 46.613 47.1523 47.0972 47.056C47.5813 46.9597 48.0832 47.0091 48.5393 47.198C48.9954 47.3869 49.3852 47.7069 49.6594 48.1173C49.9337 48.5278 50.0801 49.0104 50.0801 49.504C50.0794 50.1658 49.8163 50.8003 49.3483 51.2682C48.8804 51.7362 48.2459 51.9994 47.5841 52ZM47.5841 48.672C47.4195 48.672 47.2587 48.7208 47.1219 48.8122C46.985 48.9037 46.8784 49.0336 46.8154 49.1856C46.7525 49.3377 46.736 49.5049 46.7681 49.6663C46.8002 49.8277 46.8794 49.976 46.9958 50.0923C47.1121 50.2087 47.2604 50.2879 47.4218 50.32C47.5832 50.3521 47.7505 50.3357 47.9025 50.2727C48.0545 50.2097 48.1845 50.1031 48.2759 49.9663C48.3673 49.8294 48.4161 49.6686 48.4161 49.504C48.4159 49.2834 48.3281 49.0719 48.1722 48.916C48.0162 48.76 47.8047 48.6722 47.5841 48.672ZM40.0961 44.512C39.6024 44.512 39.1199 44.3656 38.7094 44.0914C38.2989 43.8171 37.979 43.4273 37.7901 42.9712C37.6012 42.5151 37.5518 42.0133 37.6481 41.5291C37.7444 41.0449 37.9821 40.6002 38.3312 40.2511C38.6802 39.902 39.125 39.6643 39.6092 39.568C40.0933 39.4717 40.5952 39.5211 41.0513 39.71C41.5074 39.8989 41.8972 40.2189 42.1714 40.6293C42.4457 41.0398 42.5921 41.5224 42.5921 42.016C42.5914 42.6778 42.3283 43.3123 41.8603 43.7802C41.3924 44.2482 40.7579 44.5114 40.0961 44.512ZM40.0961 41.184C39.9315 41.184 39.7707 41.2328 39.6339 41.3242C39.497 41.4157 39.3904 41.5456 39.3274 41.6976C39.2645 41.8497 39.248 42.0169 39.2801 42.1783C39.3122 42.3397 39.3914 42.488 39.5078 42.6043C39.6241 42.7207 39.7724 42.7999 39.9338 42.832C40.0952 42.8641 40.2625 42.8477 40.4145 42.7847C40.5665 42.7217 40.6965 42.6151 40.7879 42.4783C40.8793 42.3414 40.9281 42.1806 40.9281 42.016C40.9279 41.7954 40.8402 41.5839 40.6842 41.428C40.5282 41.272 40.3167 41.1842 40.0961 41.184ZM41.6919 50.5981C41.3027 50.5976 40.9215 50.4879 40.5916 50.2815C40.2616 50.0752 39.9962 49.7804 39.8255 49.4307C39.6547 49.081 39.5855 48.6904 39.6257 48.3033C39.6659 47.9162 39.8139 47.5482 40.0528 47.241L44.3435 41.7232C44.6824 41.2876 45.1805 41.0045 45.7281 40.9361C46.2758 40.8678 46.8282 41.0198 47.2638 41.3587C47.6994 41.6977 47.9825 42.1958 48.0508 42.7434C48.1191 43.2911 47.9671 43.8435 47.6282 44.2791L43.3367 49.7969C43.1417 50.0469 42.8922 50.2491 42.6071 50.388C42.322 50.5268 42.009 50.5987 41.6919 50.5981ZM45.9867 42.5859C45.9232 42.5856 45.8605 42.5998 45.8034 42.6275C45.7462 42.6552 45.6962 42.6956 45.6572 42.7457L41.3657 48.2635C41.3322 48.3067 41.3075 48.356 41.293 48.4087C41.2785 48.4614 41.2746 48.5165 41.2814 48.5707C41.2882 48.6249 41.3056 48.6773 41.3326 48.7248C41.3597 48.7723 41.3958 48.814 41.4389 48.8476C41.4821 48.8811 41.5314 48.9058 41.5842 48.9203C41.6369 48.9348 41.6919 48.9387 41.7461 48.9319C41.8004 48.9251 41.8527 48.9077 41.9002 48.8807C41.9478 48.8536 41.9895 48.8175 42.023 48.7744L46.3145 43.2565C46.362 43.1951 46.3914 43.1216 46.3993 43.0443C46.4072 42.967 46.3933 42.889 46.3592 42.8192C46.3251 42.7494 46.2721 42.6906 46.2063 42.6494C46.1404 42.6081 46.0643 42.5862 45.9867 42.5859Z" fill="#3931ED"/>
<path d="M25 35H22C21.4697 34.9995 20.9613 34.7886 20.5864 34.4136C20.2114 34.0387 20.0005 33.5303 20 33V21C20.0005 20.4697 20.2114 19.9613 20.5864 19.5864C20.9613 19.2114 21.4697 19.0005 22 19H25C25.5303 19.0005 26.0387 19.2114 26.4136 19.5864C26.7886 19.9613 26.9995 20.4697 27 21V33C26.9995 33.5303 26.7886 34.0387 26.4136 34.4136C26.0387 34.7886 25.5303 34.9995 25 35ZM22 21V33.001L25 33V21H22Z" fill="#010B12"/>
<path d="M42.282 38.67C41.647 38.6711 41.0285 38.4677 40.518 38.09L36.891 36.048L36.191 36.239C35.4464 36.4431 34.6659 36.4805 33.9052 36.3484C33.1445 36.2163 32.4223 35.9181 31.79 35.475L29.685 34H26C25.7348 34 25.4804 33.8946 25.2929 33.7071C25.1054 33.5196 25 33.2652 25 33V22C25 21.7348 25.1054 21.4804 25.2929 21.2929C25.4804 21.1054 25.7348 21 26 21H36.188C36.8332 20.9998 37.4742 21.1042 38.086 21.309L41.688 22.508C42.9531 22.9324 44.0418 23.7641 44.784 24.873L47.832 29.445C47.9792 29.6657 48.0327 29.9358 47.9808 30.1959C47.9288 30.456 47.7757 30.6848 47.555 30.832C47.3343 30.9792 47.0642 31.0327 46.8041 30.9808C46.544 30.9288 46.3152 30.7757 46.168 30.555L43.12 25.982C42.6253 25.2426 41.8994 24.688 41.056 24.405L37.454 23.206C37.0459 23.0694 36.6184 22.9999 36.188 23H27V32H30C30.2052 32 30.4055 32.0628 30.574 32.18L32.938 33.836C33.3289 34.1117 33.776 34.2972 34.2473 34.3791C34.7185 34.4611 35.202 34.4375 35.663 34.31L36.76 34.01C37.0142 33.9403 37.2857 33.9741 37.515 34.104L41.558 36.381C41.6018 36.4053 41.6436 36.4331 41.683 36.464C41.7853 36.5437 41.9024 36.6025 42.0275 36.6368C42.1526 36.6711 42.2833 36.6804 42.412 36.664C42.5433 36.6484 42.6702 36.6067 42.7853 36.5415C42.9003 36.4762 43.0012 36.3887 43.082 36.284C43.22 36.1023 43.2926 35.8793 43.2881 35.6512C43.2836 35.423 43.2021 35.2031 43.057 35.027C43.0028 34.9651 42.9425 34.9088 42.877 34.859L37.413 30.236C37.2325 30.0838 37.0041 30.0002 36.768 30H35C34.7348 30 34.4804 29.8946 34.2929 29.7071C34.1054 29.5196 34 29.2652 34 29C34 28.7348 34.1054 28.4804 34.2929 28.2929C34.4804 28.1054 34.7348 28 35 28H36.768C37.4767 28.0007 38.1624 28.2518 38.704 28.709L44.156 33.32C44.3185 33.4512 44.4679 33.5979 44.602 33.758C44.9453 34.1723 45.1709 34.6714 45.2549 35.2029C45.339 35.7345 45.2785 36.2788 45.0798 36.7789C44.8811 37.2789 44.5515 37.7163 44.1256 38.0452C43.6996 38.3741 43.1931 38.5823 42.659 38.648C42.5339 38.6634 42.408 38.6701 42.282 38.67Z" fill="#010B12"/>
<path d="M44 61C40.9061 61.0006 37.8784 60.104 35.2838 58.4188C32.6891 56.7336 30.6388 54.3322 29.3812 51.5054C28.1236 48.6787 27.7127 45.5479 28.1983 42.4924C28.6838 39.4368 30.045 36.5876 32.117 34.29C32.2049 34.1924 32.3113 34.1131 32.4299 34.0567C32.5485 34.0002 32.6771 33.9676 32.8083 33.9609C32.9395 33.9541 33.0708 33.9732 33.1946 34.0172C33.3184 34.0611 33.4324 34.129 33.53 34.217C33.6275 34.305 33.7068 34.4113 33.7633 34.53C33.8198 34.6486 33.8523 34.7772 33.8591 34.9084C33.8659 35.0396 33.8467 35.1709 33.8028 35.2947C33.7589 35.4185 33.6909 35.5324 33.603 35.63C31.3389 38.1466 30.0651 41.3993 30.0179 44.7841C29.9708 48.169 31.1536 51.4559 33.3467 54.0345C35.5399 56.6132 38.5942 58.3084 41.9427 58.8053C45.2912 59.3022 48.7062 58.5671 51.5537 56.7365C54.4011 54.9058 56.4875 52.1041 57.4254 48.8514C58.3633 45.5988 58.0889 42.1163 56.6533 39.0507C55.2177 35.985 52.7183 33.5445 49.6193 32.1824C46.5203 30.8202 43.0323 30.6289 39.803 31.644C39.5501 31.7242 39.2757 31.7007 39.0401 31.5786C38.8046 31.4565 38.6272 31.2459 38.547 30.993C38.4667 30.7401 38.4902 30.4657 38.6123 30.2302C38.7344 29.9946 38.9451 29.8172 39.198 29.737C41.3981 29.0451 43.7218 28.837 46.0099 29.127C48.2979 29.417 50.4963 30.1982 52.4542 31.4172C54.4121 32.6361 56.0834 34.2639 57.3535 36.1891C58.6236 38.1143 59.4624 40.2913 59.8126 42.5709C60.1627 44.8505 60.0159 47.1789 59.3822 49.3965C58.7484 51.6141 57.6427 53.6685 56.1409 55.4188C54.639 57.1692 52.7765 58.5742 50.6809 59.5375C48.5854 60.5008 46.3063 60.9997 44 61Z" fill="#010B12"/>
<path d="M44.0001 57.7499C41.9748 57.7494 39.9788 57.2665 38.1772 56.3413C36.3757 55.416 34.8204 54.075 33.6401 52.4292C32.4598 50.7834 31.6884 48.8802 31.3898 46.877C31.0913 44.8739 31.2741 42.8284 31.9231 40.9099C32.0106 40.6618 32.1924 40.4582 32.429 40.3432C32.6656 40.2281 32.938 40.211 33.1872 40.2955C33.4364 40.3799 33.6422 40.5592 33.7601 40.7944C33.878 41.0296 33.8985 41.3018 33.8171 41.5519C33.1694 43.4637 33.073 45.5193 33.539 47.4833C34.005 49.4473 35.0146 51.2404 36.4522 52.6574C37.8897 54.0744 39.6972 55.058 41.6677 55.4957C43.6382 55.9334 45.6921 55.8074 47.5944 55.1323C49.4967 54.4571 51.1704 53.26 52.424 51.6779C53.6777 50.0959 54.4606 48.1928 54.6831 46.1866C54.9056 44.1804 54.5588 42.152 53.6824 40.3337C52.8059 38.5154 51.4352 36.9806 49.7271 35.9049C49.6115 35.8372 49.5107 35.7468 49.4306 35.6393C49.3506 35.5318 49.293 35.4093 49.2613 35.279C49.2295 35.1488 49.2243 35.0135 49.2459 34.8812C49.2675 34.7489 49.3154 34.6223 49.3869 34.509C49.4584 34.3956 49.5519 34.2977 49.662 34.2212C49.772 34.1447 49.8963 34.0911 50.0275 34.0635C50.1587 34.036 50.2941 34.0352 50.4256 34.061C50.5571 34.0868 50.6821 34.1388 50.7931 34.2139C53.1327 35.6869 54.93 37.8804 55.9141 40.4639C56.8982 43.0474 57.0159 45.8808 56.2492 48.537C55.4826 51.1932 53.8733 53.5281 51.6639 55.1899C49.4545 56.8517 46.7647 57.7502 44.0001 57.7499Z" fill="#010B12"/>
<path d="M47.5 35C48.0523 35 48.5 34.5523 48.5 34C48.5 33.4477 48.0523 33 47.5 33C46.9477 33 46.5 33.4477 46.5 34C46.5 34.5523 46.9477 35 47.5 35Z" fill="#010B12"/>
<path d="M34 40C34.5523 40 35 39.5523 35 39C35 38.4477 34.5523 38 34 38C33.4477 38 33 38.4477 33 39C33 39.5523 33.4477 40 34 40Z" fill="#010B12"/>
</svg>
