<svg width="80" height="80" viewBox="0 0 80 80" fill="none" xmlns="http://www.w3.org/2000/svg">
<circle cx="40" cy="40" r="40" fill="#E9F4FA"/>
<path d="M40 39.0625C39.4825 39.0625 39.0625 39.4825 39.0625 40C39.0625 40.5175 39.4825 40.9375 40 40.9375C40.5175 40.9375 40.9375 40.5175 40.9375 40C40.9375 39.4825 40.5175 39.0625 40 39.0625ZM40 46.5625C39.4825 46.5625 39.0625 46.9825 39.0625 47.5C39.0625 48.0175 39.4825 48.4375 40 48.4375C40.5175 48.4375 40.9375 48.0175 40.9375 47.5C40.9375 46.9825 40.5175 46.5625 40 46.5625ZM40 54.3438C39.4825 54.3438 39.0625 54.7638 39.0625 55.2812C39.0625 55.7987 39.4825 56.2188 40 56.2188C40.5175 56.2188 40.9375 55.7987 40.9375 55.2812C40.9375 54.7638 40.5175 54.3438 40 54.3438Z" fill="#010B12"/>
<path d="M57.8108 24.6863C57.8102 24.6691 57.8098 24.6518 57.8082 24.6347C57.8069 24.6197 57.8046 24.605 57.8027 24.5902C57.8005 24.5747 57.7985 24.5594 57.7956 24.544C57.7927 24.5284 57.789 24.5133 57.7853 24.4981C57.782 24.4836 57.7783 24.4693 57.7743 24.455C57.7698 24.4399 57.7647 24.4252 57.7596 24.4104C57.7548 24.3962 57.7497 24.3821 57.7442 24.3681C57.7384 24.3541 57.7323 24.3402 57.7258 24.3265C57.7194 24.3124 57.7127 24.2984 57.7056 24.2847C57.6987 24.2714 57.6911 24.2585 57.6835 24.2457C57.6756 24.2323 57.6678 24.2188 57.6592 24.2057C57.6507 24.1926 57.6414 24.1801 57.6322 24.1675C57.6234 24.1554 57.6148 24.1433 57.6054 24.1316C57.5946 24.1182 57.5831 24.1056 57.5717 24.0929C57.5643 24.0847 57.5578 24.0761 57.5502 24.0681L50.0502 16.2869C50.0481 16.2847 50.0459 16.283 50.0438 16.2809C50.0315 16.2684 50.0185 16.2568 50.0057 16.2451C49.9955 16.2358 49.9856 16.2261 49.9752 16.2174C49.9635 16.2076 49.9509 16.1987 49.9386 16.1895C49.9262 16.1801 49.9142 16.1702 49.9014 16.1616C49.8905 16.1542 49.8789 16.1478 49.8678 16.1409C49.8531 16.1318 49.8386 16.1222 49.8236 16.1141C49.8112 16.1073 49.7983 16.1018 49.7856 16.0956C49.7712 16.0886 49.7568 16.0809 49.7421 16.0746C49.7257 16.0677 49.7087 16.0621 49.6918 16.056C49.6803 16.0518 49.6689 16.047 49.6572 16.0433C49.6401 16.038 49.6225 16.0339 49.605 16.0295C49.5929 16.0265 49.581 16.0228 49.5688 16.0203C49.5535 16.0171 49.5378 16.0151 49.5224 16.0127C49.5074 16.0103 49.4925 16.0074 49.4774 16.0058C49.4639 16.0043 49.4501 16.004 49.4364 16.0031C49.4189 16.002 49.4013 16.0006 49.3837 16.0005C49.3806 16.0004 49.3779 16 49.375 16H25C23.4492 16 22.1875 17.2617 22.1875 18.8125V61.1875C22.1875 62.7383 23.4492 64 25 64H55C56.5508 64 57.8125 62.7383 57.8125 61.1875V24.7188C57.8125 24.7078 57.8113 24.6972 57.8108 24.6863ZM50.3125 19.2611L54.6693 23.7812H51.25C50.7331 23.7812 50.3125 23.3607 50.3125 22.8438V19.2611ZM55.9375 61.1875C55.9375 61.7044 55.5169 62.125 55 62.125H25C24.4831 62.125 24.0625 61.7044 24.0625 61.1875V18.8125C24.0625 18.2956 24.4831 17.875 25 17.875H48.4375V22.8438C48.4375 24.3946 49.6992 25.6562 51.25 25.6562H55.9375V61.1875Z" fill="#010B12"/>
<path d="M35.038 37.462C34.8621 37.2862 34.6237 37.1875 34.3751 37.1875C34.1264 37.1875 33.888 37.2863 33.7122 37.4621L30.6251 40.5492L29.413 39.3371C29.0468 38.971 28.4534 38.971 28.0871 39.3371C27.721 39.7032 27.721 40.2968 28.0871 40.663L29.9621 42.538C30.1453 42.721 30.3851 42.8125 30.6251 42.8125C30.8651 42.8125 31.1049 42.721 31.288 42.5379L35.038 38.7879C35.4041 38.4218 35.4041 37.8282 35.038 37.462ZM51.2501 39.0625H43.7501C43.2324 39.0625 42.8126 39.4823 42.8126 40C42.8126 40.5178 43.2324 40.9375 43.7501 40.9375H51.2501C51.7678 40.9375 52.1876 40.5178 52.1876 40C52.1876 39.4823 51.7678 39.0625 51.2501 39.0625ZM35.038 44.962C34.8621 44.7862 34.6237 44.6875 34.3751 44.6875C34.1264 44.6875 33.888 44.7863 33.7122 44.9621L30.6251 48.0492L29.413 46.8371C29.0468 46.471 28.4534 46.471 28.0871 46.8371C27.721 47.2032 27.721 47.7968 28.0871 48.163L29.9621 50.038C30.1453 50.221 30.3851 50.3125 30.6251 50.3125C30.8651 50.3125 31.1049 50.221 31.288 50.0379L35.038 46.2879C35.4041 45.9218 35.4041 45.3282 35.038 44.962ZM51.2501 46.5625H43.7501C43.2324 46.5625 42.8126 46.9823 42.8126 47.5C42.8126 48.0178 43.2324 48.4375 43.7501 48.4375H51.2501C51.7678 48.4375 52.1876 48.0178 52.1876 47.5C52.1876 46.9823 51.7678 46.5625 51.2501 46.5625ZM35.038 52.7433C34.8621 52.5675 34.6237 52.4687 34.3751 52.4687C34.1264 52.4688 33.888 52.5676 33.7122 52.7434L30.6251 55.8305L29.413 54.6184C29.0468 54.2523 28.4534 54.2523 28.0871 54.6184C27.721 54.9845 27.721 55.5781 28.0871 55.9443L29.9621 57.8193C30.1453 58.0023 30.3851 58.0938 30.6251 58.0938C30.8651 58.0938 31.1049 58.0023 31.288 57.8192L35.038 54.0692C35.4041 53.7031 35.4041 53.1095 35.038 52.7433ZM51.2501 54.3438H43.7501C43.2324 54.3438 42.8126 54.7635 42.8126 55.2813C42.8126 55.7991 43.2324 56.2188 43.7501 56.2188H51.2501C51.7678 56.2188 52.1876 55.7991 52.1876 55.2813C52.1876 54.7635 51.7678 54.3438 51.2501 54.3438Z" fill="#010B12"/>
<path d="M37.3083 31.9644L35.802 28.1988L35.8013 28.1972L33.5582 22.5895C33.4886 22.4155 33.3685 22.2663 33.2134 22.1612C33.0582 22.0562 32.8752 22 32.6878 22C32.5004 22 32.3173 22.0561 32.1622 22.1612C32.007 22.2662 31.8869 22.4154 31.8173 22.5894L29.5742 28.1971L29.5735 28.1987L28.0672 31.9643C27.8751 32.4451 28.1089 32.9907 28.5896 33.183C29.0702 33.3754 29.6158 33.1415 29.8083 32.6607L31.0726 29.5001H34.3031L35.5673 32.6607C35.6369 32.8348 35.7571 32.984 35.9123 33.0891C36.0675 33.1942 36.2507 33.2503 36.4381 33.2503C36.554 33.2503 36.6718 33.2288 36.786 33.183C37.2667 32.9907 37.5006 32.4451 37.3083 31.9644ZM31.8225 27.6251L32.6878 25.4619L33.553 27.6251H31.8225ZM42.0628 23.8751H41.1253V22.9376C41.1253 22.4198 40.7055 22.0001 40.1878 22.0001C39.6701 22.0001 39.2503 22.4198 39.2503 22.9376V23.8751H38.3128C37.7951 23.8751 37.3753 24.2948 37.3753 24.8126C37.3753 25.3303 37.7951 25.7501 38.3128 25.7501H39.2503V26.6876C39.2503 27.2053 39.6701 27.6251 40.1878 27.6251C40.7055 27.6251 41.1253 27.2053 41.1253 26.6876V25.7501H42.0628C42.5805 25.7501 43.0003 25.3303 43.0003 24.8126C43.0003 24.2948 42.5805 23.8751 42.0628 23.8751Z" fill="#3931ED"/>
</svg>
