<svg width="81" height="80" viewBox="0 0 81 80" fill="none" xmlns="http://www.w3.org/2000/svg">
<circle cx="40.25" cy="40" r="40" fill="#E9F4FA"/>
<path d="M56.25 37C56.0511 37 55.8603 36.921 55.7197 36.7803C55.579 36.6397 55.5 36.4489 55.5 36.25V26.8105L46.1895 17.5H25.5V19C25.5 19.1989 25.421 19.3897 25.2803 19.5303C25.1397 19.671 24.9489 19.75 24.75 19.75C24.5511 19.75 24.3603 19.671 24.2197 19.5303C24.079 19.3897 24 19.1989 24 19V16.75C24 16.5511 24.079 16.3603 24.2197 16.2197C24.3603 16.079 24.5511 16 24.75 16H46.5C46.6989 16 46.8896 16.0791 47.0303 16.2198L56.7803 25.9698C56.9209 26.1104 57 26.3011 57 26.5V36.25C57 36.4489 56.921 36.6397 56.7803 36.7803C56.6397 36.921 56.4489 37 56.25 37ZM47.25 64H24.75C24.5511 64 24.3603 63.921 24.2197 63.7803C24.079 63.6397 24 63.4489 24 63.25V22C24 21.8011 24.079 21.6103 24.2197 21.4697C24.3603 21.329 24.5511 21.25 24.75 21.25C24.9489 21.25 25.1397 21.329 25.2803 21.4697C25.421 21.6103 25.5 21.8011 25.5 22V62.5H47.25C47.4489 62.5 47.6397 62.579 47.7803 62.7197C47.921 62.8603 48 63.0511 48 63.25C48 63.4489 47.921 63.6397 47.7803 63.7803C47.6397 63.921 47.4489 64 47.25 64Z" fill="#010B12"/>
<path d="M56.25 27.25H46.5C46.3011 27.25 46.1103 27.171 45.9697 27.0303C45.829 26.8897 45.75 26.6989 45.75 26.5V16.75C45.75 16.5511 45.829 16.3603 45.9697 16.2197C46.1103 16.079 46.3011 16 46.5 16C46.6989 16 46.8897 16.079 47.0303 16.2197C47.171 16.3603 47.25 16.5511 47.25 16.75V25.75H56.25C56.4489 25.75 56.6397 25.829 56.7803 25.9697C56.921 26.1103 57 26.3011 57 26.5C57 26.6989 56.921 26.8897 56.7803 27.0303C56.6397 27.171 56.4489 27.25 56.25 27.25ZM48 34H33C32.8011 34 32.6103 33.921 32.4697 33.7803C32.329 33.6397 32.25 33.4489 32.25 33.25C32.25 33.0511 32.329 32.8603 32.4697 32.7197C32.6103 32.579 32.8011 32.5 33 32.5H48C48.1989 32.5 48.3897 32.579 48.5303 32.7197C48.671 32.8603 48.75 33.0511 48.75 33.25C48.75 33.4489 48.671 33.6397 48.5303 33.7803C48.3897 33.921 48.1989 34 48 34ZM46.5 38.5H29.25C29.0511 38.5 28.8603 38.421 28.7197 38.2803C28.579 38.1397 28.5 37.9489 28.5 37.75C28.5 37.5511 28.579 37.3603 28.7197 37.2197C28.8603 37.079 29.0511 37 29.25 37H46.5C46.6989 37 46.8897 37.079 47.0303 37.2197C47.171 37.3603 47.25 37.5511 47.25 37.75C47.25 37.9489 47.171 38.1397 47.0303 38.2803C46.8897 38.421 46.6989 38.5 46.5 38.5ZM37.5 43H29.25C29.0511 43 28.8603 42.921 28.7197 42.7803C28.579 42.6397 28.5 42.4489 28.5 42.25C28.5 42.0511 28.579 41.8603 28.7197 41.7197C28.8603 41.579 29.0511 41.5 29.25 41.5H37.5C37.6989 41.5 37.8897 41.579 38.0303 41.7197C38.171 41.8603 38.25 42.0511 38.25 42.25C38.25 42.4489 38.171 42.6397 38.0303 42.7803C37.8897 42.921 37.6989 43 37.5 43ZM38.25 47.5H29.25C29.0511 47.5 28.8603 47.421 28.7197 47.2803C28.579 47.1397 28.5 46.9489 28.5 46.75C28.5 46.5511 28.579 46.3603 28.7197 46.2197C28.8603 46.079 29.0511 46 29.25 46H38.25C38.4489 46 38.6397 46.079 38.7803 46.2197C38.921 46.3603 39 46.5511 39 46.75C39 46.9489 38.921 47.1397 38.7803 47.2803C38.6397 47.421 38.4489 47.5 38.25 47.5ZM39.75 52H29.25C29.0511 52 28.8603 51.921 28.7197 51.7803C28.579 51.6397 28.5 51.4489 28.5 51.25C28.5 51.0511 28.579 50.8603 28.7197 50.7197C28.8603 50.579 29.0511 50.5 29.25 50.5H39.75C39.9489 50.5 40.1397 50.579 40.2803 50.7197C40.421 50.8603 40.5 51.0511 40.5 51.25C40.5 51.4489 40.421 51.6397 40.2803 51.7803C40.1397 51.921 39.9489 52 39.75 52ZM52.5 64C52.4011 64.0003 52.3032 63.9806 52.212 63.9422C43.6147 60.3633 41.187 48.8635 40.5037 42.325C40.4849 42.1443 40.5322 41.9628 40.6371 41.8144C40.7419 41.6659 40.8971 41.5606 41.0737 41.518C44.9486 40.5872 48.6679 39.0989 52.1152 37.0998C52.2305 37.0327 52.3614 36.9974 52.4947 36.9974C52.6281 36.9974 52.759 37.0327 52.8742 37.0998C56.325 39.0996 60.0479 40.5878 63.9262 41.518C64.1036 41.5599 64.2596 41.6648 64.3652 41.8134C64.4708 41.9619 64.5187 42.1437 64.5 42.325C64.3952 43.3426 64.2617 44.357 64.0995 45.367C64.0679 45.5634 63.9595 45.7392 63.7983 45.8558C63.637 45.9723 63.436 46.02 63.2396 45.9884C63.0432 45.9567 62.8674 45.8484 62.7508 45.6871C62.6343 45.5259 62.5866 45.3249 62.6182 45.1285C62.7424 44.3606 62.8486 43.5899 62.937 42.817C59.2879 41.8824 55.778 40.4702 52.4985 38.617C49.2231 40.469 45.7179 41.8811 42.0735 42.817C42.7942 49.027 45.114 59.125 52.5 62.4333C57.1072 60.382 60.3172 55.5558 62.0422 48.0813C62.0644 47.9853 62.1053 47.8946 62.1625 47.8144C62.2197 47.7342 62.2921 47.6661 62.3756 47.6139C62.4592 47.5617 62.5522 47.5264 62.6493 47.5102C62.7465 47.4939 62.8459 47.497 62.9419 47.5191C63.0379 47.5413 63.1285 47.5821 63.2087 47.6393C63.2889 47.6965 63.3571 47.769 63.4093 47.8525C63.4614 47.9361 63.4967 48.0291 63.5129 48.1262C63.5292 48.2234 63.5262 48.3228 63.504 48.4187C61.629 56.5472 58.0215 61.7687 52.7865 63.9437C52.6956 63.9811 52.5983 64.0002 52.5 64Z" fill="#010B12"/>
<path d="M51 54.25C50.8011 54.25 50.6104 54.1709 50.4697 54.0303L47.4697 51.0303C47.3331 50.8888 47.2575 50.6993 47.2592 50.5027C47.261 50.3061 47.3398 50.1179 47.4789 49.9789C47.6179 49.8398 47.8061 49.761 48.0027 49.7592C48.1993 49.7575 48.3888 49.8331 48.5303 49.9697L51 52.4395L56.4697 46.9697C56.6112 46.8331 56.8007 46.7575 56.9973 46.7592C57.1939 46.761 57.3821 46.8398 57.5211 46.9789C57.6602 47.1179 57.739 47.3061 57.7408 47.5027C57.7425 47.6993 57.6669 47.8888 57.5303 48.0303L51.5303 54.0303C51.3896 54.1709 51.1989 54.25 51 54.25ZM34.5 24.25H29.25C29.0511 24.25 28.8603 24.171 28.7197 24.0303C28.579 23.8897 28.5 23.6989 28.5 23.5C28.5 23.3011 28.579 23.1103 28.7197 22.9697C28.8603 22.829 29.0511 22.75 29.25 22.75H34.5C34.6989 22.75 34.8897 22.829 35.0303 22.9697C35.171 23.1103 35.25 23.3011 35.25 23.5C35.25 23.6989 35.171 23.8897 35.0303 24.0303C34.8897 24.171 34.6989 24.25 34.5 24.25Z" fill="#3931ED"/>
</svg>
