<svg width="81" height="80" viewBox="0 0 81 80" fill="none" xmlns="http://www.w3.org/2000/svg">
<circle cx="40.75" cy="40" r="40" fill="#E9F4FA"/>
<path d="M33.906 38.125C33.6885 38.125 33.4838 38.2188 33.3405 38.3823C32.9828 38.722 30.1095 42.4322 29.5403 43.7717C27.3188 47.3215 29.9648 51.6108 33.906 51.625C36.7133 51.625 39.0428 49.3427 39.0975 46.558C39.2243 43.9165 34.9583 38.941 34.4715 38.3823C34.4011 38.3015 34.3142 38.2367 34.2167 38.1923C34.1191 38.1479 34.0132 38.125 33.906 38.125ZM33.906 50.125C32.9265 50.124 31.9873 49.7344 31.2947 49.0418C30.6021 48.3492 30.2125 47.41 30.2115 46.4305C30.1635 45.454 31.5863 43.1125 32.361 42.0775C32.8539 41.3815 33.3702 40.7024 33.909 40.0413C35.5605 42.0573 37.665 45.1135 37.5983 46.5077C37.5585 48.5027 35.9033 50.125 33.906 50.125Z" fill="#3931ED"/>
<path d="M43.4688 19H24.3438C22.6892 19 21.3438 20.3455 21.3438 22V55.75C20.5165 55.75 19.8438 56.4227 19.8438 57.25V59.5C19.8438 60.3273 20.5165 61 21.3438 61H46.4688C47.296 61 47.9688 60.3273 47.9688 59.5V57.25C47.9688 56.4227 47.296 55.75 46.4688 55.75V39.0625H50.0312V48.625C49.981 52.24 54.5612 54.1397 57.0685 51.5433C57.4551 51.1623 57.7615 50.7079 57.9698 50.2067C58.1781 49.7055 58.284 49.1677 58.2812 48.625V40.75C59.239 40.867 60.1533 40.2715 60.1562 39.25V36.25C60.1562 34.8685 59.3965 33.6722 58.2812 33.022V29.4918L61.3667 27.0917C62.1273 26.4872 61.243 25.3105 60.4458 25.9075L57.0708 28.5325C56.8885 28.675 56.7812 28.8933 56.7812 29.125V32.5375C55.8452 32.3177 54.8957 33.022 54.9062 34V39.25C54.9092 40.2715 55.8213 40.8662 56.7812 40.75V48.625C56.6973 52.0795 51.6243 52.0938 51.5312 48.625V35.0425C51.5312 32.092 49.3202 29.6537 46.4688 29.284V22C46.4688 20.3455 45.1233 19 43.4688 19ZM56.4062 34C57.6175 33.9993 58.6615 34.9975 58.6562 36.25L58.657 39.25H56.4062V34ZM50.0312 35.0425V37.5625H45.7188C45.2838 37.5565 44.8915 37.9705 44.9875 38.4062C44.9425 38.4678 44.98 55.669 44.9688 55.75H25.8438C24.8688 55.7567 24.8507 57.2373 25.8438 57.25H46.4688V59.5H21.3438V57.25H22.0938C22.2927 57.25 22.4834 57.171 22.6241 57.0303C22.7647 56.8897 22.8438 56.6989 22.8438 56.5V22C22.8438 21.1727 23.5165 20.5 24.3438 20.5H43.4688C44.296 20.5 44.9688 21.1727 44.9688 22V34.75C44.9837 35.7385 46.4545 35.7325 46.4688 34.75V30.7997C48.49 31.156 50.0312 32.9207 50.0312 35.0425Z" fill="#010B12"/>
<path d="M40.6562 23.5H39.1562C38.1678 23.5188 38.1722 24.9828 39.1562 25H40.6562V32.5H27.1562V25H35.4062C36.391 24.985 36.3925 23.5158 35.4062 23.5H27.1562C26.329 23.5 25.6562 24.1727 25.6562 25V32.5C25.6562 33.3273 26.329 34 27.1562 34H40.6562C41.4835 34 42.1562 33.3273 42.1562 32.5V25C42.1562 24.1727 41.4835 23.5 40.6562 23.5Z" fill="#010B12"/>
</svg>
