<svg width="36" height="36" viewBox="0 0 36 36" fill="none" xmlns="http://www.w3.org/2000/svg">
<path fill-rule="evenodd" clip-rule="evenodd" d="M22.2319 25.827C22.6759 23.367 24.5914 21.3345 27.0289 20.79C28.2173 20.5151 29.4591 20.5822 30.6109 20.9835C30.9998 21.1227 31.4161 21.1681 31.8258 21.1158C32.2355 21.0635 32.6271 20.9152 32.9686 20.6828C33.31 20.4504 33.5917 20.1406 33.7907 19.7787C33.9897 19.4167 34.1002 19.0128 34.1134 18.6C34.2109 16.146 33.7294 13.5345 32.2759 10.8015C29.4289 5.44199 23.8969 1.81199 17.8294 1.87649C8.53693 1.97249 1.12693 9.92849 1.93543 19.413C2.53993 26.49 7.92343 32.43 14.8894 33.816H14.8909C17.0779 34.251 19.1854 34.209 21.1639 33.804C22.8754 33.456 23.7079 31.5165 22.8769 29.979C22.1942 28.7092 21.9666 27.244 22.2319 25.827ZM20.0164 25.428C19.6599 27.3471 19.9706 29.3304 20.8969 31.0485H20.8984C21.0124 31.2615 20.9524 31.551 20.7154 31.599H20.7139C18.9378 31.9636 17.1065 31.9672 15.3289 31.6095C9.33493 30.417 4.69843 25.311 4.17793 19.221C3.48043 11.0595 9.85543 4.20899 17.8519 4.12649H17.8534C23.0854 4.07099 27.8344 7.23599 30.2884 11.8575C31.5289 14.19 31.9474 16.4145 31.8649 18.51C31.864 18.57 31.8488 18.629 31.8207 18.682C31.7925 18.735 31.7522 18.7806 31.703 18.815C31.6538 18.8494 31.5971 18.8716 31.5377 18.8799C31.4782 18.8882 31.4176 18.8822 31.3609 18.8625L31.3594 18.861C29.8099 18.3187 28.1384 18.2261 26.5384 18.594C23.2279 19.3335 20.6194 22.0875 20.0164 25.428Z" fill="#010B12"/>
<path fill-rule="evenodd" clip-rule="evenodd" d="M21.375 13.5C21.404 14.5747 21.8513 15.5958 22.6217 16.3457C23.3922 17.0956 24.4249 17.5152 25.5 17.5152C26.5752 17.5152 27.6078 17.0956 28.3783 16.3457C29.1487 15.5958 29.596 14.5747 29.625 13.5C29.596 12.4252 29.1487 11.4042 28.3783 10.6543C27.6078 9.90437 26.5752 9.48474 25.5 9.48474C24.4249 9.48474 23.3922 9.90437 22.6217 10.6543C21.8513 11.4042 21.404 12.4252 21.375 13.5ZM23.625 13.5C23.625 13.0027 23.8225 12.5258 24.1742 12.1742C24.5258 11.8225 25.0027 11.625 25.5 11.625C25.9973 11.625 26.4742 11.8225 26.8258 12.1742C27.1775 12.5258 27.375 13.0027 27.375 13.5C27.375 13.9973 27.1775 14.4742 26.8258 14.8258C26.4742 15.1774 25.9973 15.375 25.5 15.375C25.0027 15.375 24.5258 15.1774 24.1742 14.8258C23.8225 14.4742 23.625 13.9973 23.625 13.5ZM13.875 8.99999C13.904 10.0747 14.3513 11.0958 15.1217 11.8457C15.8922 12.5956 16.9249 13.0152 18 13.0152C19.0752 13.0152 20.1078 12.5956 20.8783 11.8457C21.6487 11.0958 22.096 10.0747 22.125 8.99999C22.096 7.92523 21.6487 6.90422 20.8783 6.15429C20.1078 5.40437 19.0752 4.98474 18 4.98474C16.9249 4.98474 15.8922 5.40437 15.1217 6.15429C14.3513 6.90422 13.904 7.92523 13.875 8.99999ZM16.125 8.99999C16.125 8.50271 16.3225 8.02579 16.6742 7.67416C17.0258 7.32253 17.5027 7.12499 18 7.12499C18.4973 7.12499 18.9742 7.32253 19.3258 7.67416C19.6775 8.02579 19.875 8.50271 19.875 8.99999C19.875 9.49727 19.6775 9.97418 19.3258 10.3258C18.9742 10.6774 18.4973 10.875 18 10.875C17.5027 10.875 17.0258 10.6774 16.6742 10.3258C16.3225 9.97418 16.125 9.49727 16.125 8.99999ZM6.375 13.5C6.40399 14.5747 6.8513 15.5958 7.62173 16.3457C8.39215 17.0956 9.42485 17.5152 10.5 17.5152C11.5752 17.5152 12.6078 17.0956 13.3783 16.3457C14.1487 15.5958 14.596 14.5747 14.625 13.5C14.596 12.4252 14.1487 11.4042 13.3783 10.6543C12.6078 9.90437 11.5752 9.48474 10.5 9.48474C9.42485 9.48474 8.39215 9.90437 7.62173 10.6543C6.8513 11.4042 6.40399 12.4252 6.375 13.5ZM8.625 13.5C8.625 13.0027 8.82254 12.5258 9.17418 12.1742C9.52581 11.8225 10.0027 11.625 10.5 11.625C10.9973 11.625 11.4742 11.8225 11.8258 12.1742C12.1775 12.5258 12.375 13.0027 12.375 13.5C12.375 13.9973 12.1775 14.4742 11.8258 14.8258C11.4742 15.1774 10.9973 15.375 10.5 15.375C10.0027 15.375 9.52581 15.1774 9.17418 14.8258C8.82254 14.4742 8.625 13.9973 8.625 13.5ZM7.875 24C7.875 27.105 10.395 29.625 13.5 29.625C16.605 29.625 19.125 27.105 19.125 24C19.125 20.895 16.605 18.375 13.5 18.375C10.395 18.375 7.875 20.895 7.875 24ZM10.125 24C10.1254 23.1045 10.4815 22.2458 11.115 21.6129C11.7485 20.9799 12.6075 20.6246 13.503 20.625C14.3985 20.6254 15.2572 20.9815 15.8901 21.615C16.523 22.2485 16.8784 23.1075 16.878 24.003C16.8776 24.8985 16.5215 25.7572 15.888 26.3901C15.2545 27.023 14.3955 27.3784 13.5 27.378C12.6045 27.3776 11.7458 27.0215 11.1129 26.388C10.48 25.7545 10.1246 24.8955 10.125 24Z" fill="#010B12"/>
</svg>
