<svg width="32" height="35" viewBox="0 0 32 35" fill="none" xmlns="http://www.w3.org/2000/svg">
<g filter="url(#filter0_dd_711_1063)">
<path fill-rule="evenodd" clip-rule="evenodd" d="M16.7947 16.955C16.6904 16.8505 16.5665 16.7676 16.4301 16.711C16.2936 16.6545 16.1474 16.6254 15.9997 16.6254C15.8521 16.6254 15.7058 16.6545 15.5694 16.711C15.433 16.7676 15.3091 16.8505 15.2047 16.955C15.2047 16.955 14.0767 18.08 13.1767 19.5215C12.5077 20.591 11.9902 21.8285 11.9902 22.943C11.9902 24.7625 13.7242 26.375 15.9997 26.375C18.2752 26.375 20.0092 24.7625 20.0092 22.943C20.0092 21.8285 19.4917 20.591 18.8227 19.5215C17.9227 18.08 16.7947 16.955 16.7947 16.955ZM15.9997 19.4435C16.2877 19.799 16.6162 20.2355 16.9147 20.714C17.3542 21.4175 17.7592 22.2095 17.7592 22.943C17.7592 23.6735 16.9132 24.125 15.9997 24.125C15.0862 24.125 14.2402 23.6735 14.2402 22.943C14.2402 22.2095 14.6452 21.4175 15.0847 20.714C15.3832 20.2355 15.7117 19.799 15.9997 19.4435Z" fill="#010B12"/>
<path fill-rule="evenodd" clip-rule="evenodd" d="M27.625 29V13.07C27.625 12.428 27.3895 11.807 26.962 11.327L21.7885 5.5055C21.542 5.22868 21.2398 5.00712 20.9017 4.85537C20.5635 4.70362 20.1971 4.62511 19.8265 4.625H7C6.30381 4.625 5.63613 4.90156 5.14384 5.39384C4.65156 5.88613 4.375 6.55381 4.375 7.25V29C4.375 30.094 4.8096 31.1432 5.58318 31.9168C6.35677 32.6904 7.40598 33.125 8.5 33.125H23.5C24.594 33.125 25.6432 32.6904 26.4168 31.9168C27.1904 31.1432 27.625 30.094 27.625 29ZM25.375 13.07V29C25.375 30.035 24.535 30.875 23.5 30.875H8.5C7.465 30.875 6.625 30.035 6.625 29V7.25C6.625 7.15054 6.66451 7.05516 6.73484 6.98483C6.80516 6.91451 6.90054 6.875 7 6.875H19.8265C19.933 6.875 20.035 6.9215 20.107 7.001L25.2805 12.821C25.3415 12.8896 25.3752 12.9782 25.375 13.07Z" fill="#010B12"/>
<path fill-rule="evenodd" clip-rule="evenodd" d="M17.125 2C17.125 1.70163 17.0065 1.41548 16.7955 1.2045C16.5845 0.993526 16.2984 0.875 16 0.875H7.75C7.45163 0.875 7.16548 0.993526 6.9545 1.2045C6.74353 1.41548 6.625 1.70163 6.625 2V5.75C6.625 6.371 7.129 6.875 7.75 6.875H16C16.2984 6.875 16.5845 6.75647 16.7955 6.5455C17.0065 6.33452 17.125 6.04837 17.125 5.75V2ZM14.875 3.125V4.625H8.875V3.125H14.875ZM23.5915 15.503L17.5915 8.753C17.4934 8.64249 17.3745 8.55239 17.2416 8.48783C17.1087 8.42328 16.9643 8.38554 16.8168 8.37676C16.6693 8.36799 16.5215 8.38835 16.3819 8.43669C16.2423 8.48503 16.1135 8.5604 16.003 8.6585C15.8925 8.7566 15.8024 8.8755 15.7378 9.00842C15.6733 9.14134 15.6355 9.28567 15.6268 9.43318C15.618 9.58069 15.6383 9.72847 15.6867 9.86811C15.735 10.0077 15.8104 10.1365 15.9085 10.247L21.9085 16.997C22.1066 17.2202 22.3853 17.3555 22.6832 17.3732C22.9811 17.391 23.2738 17.2896 23.497 17.0915C23.7202 16.8934 23.8555 16.6147 23.8732 16.3168C23.891 16.0189 23.7896 15.7262 23.5915 15.503Z" fill="#010B12"/>
</g>
<defs>
<filter id="filter0_dd_711_1063" x="0.375" y="0.875" width="31.25" height="40.25" filterUnits="userSpaceOnUse" color-interpolation-filters="sRGB">
<feFlood flood-opacity="0" result="BackgroundImageFix"/>
<feColorMatrix in="SourceAlpha" type="matrix" values="0 0 0 0 0 0 0 0 0 0 0 0 0 0 0 0 0 0 127 0" result="hardAlpha"/>
<feOffset dy="4"/>
<feGaussianBlur stdDeviation="2"/>
<feComposite in2="hardAlpha" operator="out"/>
<feColorMatrix type="matrix" values="0 0 0 0 0 0 0 0 0 0 0 0 0 0 0 0 0 0 0.25 0"/>
<feBlend mode="normal" in2="BackgroundImageFix" result="effect1_dropShadow_711_1063"/>
<feColorMatrix in="SourceAlpha" type="matrix" values="0 0 0 0 0 0 0 0 0 0 0 0 0 0 0 0 0 0 127 0" result="hardAlpha"/>
<feOffset dy="4"/>
<feGaussianBlur stdDeviation="2"/>
<feComposite in2="hardAlpha" operator="out"/>
<feColorMatrix type="matrix" values="0 0 0 0 0 0 0 0 0 0 0 0 0 0 0 0 0 0 0.25 0"/>
<feBlend mode="normal" in2="effect1_dropShadow_711_1063" result="effect2_dropShadow_711_1063"/>
<feBlend mode="normal" in="SourceGraphic" in2="effect2_dropShadow_711_1063" result="shape"/>
</filter>
</defs>
</svg>
