<svg width="24" height="34" viewBox="0 0 24 34" fill="none" xmlns="http://www.w3.org/2000/svg">
<path fill-rule="evenodd" clip-rule="evenodd" d="M22.125 14V11C22.125 10.3038 21.8484 9.63613 21.3562 9.14384C20.8639 8.65156 20.1962 8.375 19.5 8.375H10.5C9.804 8.375 9.1365 8.651 8.6445 9.1445C8.40044 9.38793 8.20684 9.67713 8.07479 9.99554C7.94274 10.314 7.87485 10.6553 7.875 11V26.75C7.875 28.199 9.0495 29.375 10.5 29.375H12C12.0995 29.375 12.1948 29.4145 12.2652 29.4848C12.3355 29.5552 12.375 29.6505 12.375 29.75V30.5C12.375 31.196 12.651 31.8635 13.1445 32.3555C13.6365 32.849 14.304 33.125 15 33.125H21C21.696 33.125 22.3635 32.849 22.8555 32.3555C23.349 31.8635 23.625 31.196 23.625 30.5V26C23.625 25.304 23.349 24.6365 22.8555 24.1445C22.6121 23.9004 22.3229 23.7068 22.0045 23.5748C21.686 23.4427 21.3447 23.3748 21 23.375H16.5C16.4005 23.375 16.3052 23.3355 16.2348 23.2652C16.1645 23.1948 16.125 23.0995 16.125 23V17C16.125 16.9005 16.1645 16.8052 16.2348 16.7348C16.3052 16.6645 16.4005 16.625 16.5 16.625H19.5C20.1962 16.625 20.8639 16.3484 21.3562 15.8562C21.8484 15.3639 22.125 14.6962 22.125 14ZM19.875 11V14C19.875 14.0995 19.8355 14.1948 19.7652 14.2652C19.6948 14.3355 19.5995 14.375 19.5 14.375H16.5C15.804 14.375 15.1365 14.651 14.6445 15.1445C14.4004 15.3879 14.2068 15.6771 14.0748 15.9955C13.9427 16.314 13.8748 16.6553 13.875 17V23C13.875 23.696 14.151 24.3635 14.6445 24.8555C15.1365 25.349 15.804 25.625 16.5 25.625H21C21.0995 25.625 21.1948 25.6645 21.2652 25.7348C21.3355 25.8052 21.375 25.9005 21.375 26V30.5C21.375 30.5995 21.3355 30.6948 21.2652 30.7652C21.1948 30.8355 21.0995 30.875 21 30.875H15C14.9005 30.875 14.8052 30.8355 14.7348 30.7652C14.6645 30.6948 14.625 30.5995 14.625 30.5V29.75C14.625 29.0538 14.3484 28.3861 13.8562 27.8938C13.3639 27.4016 12.6962 27.125 12 27.125H10.5C10.4005 27.125 10.3052 27.0855 10.2348 27.0152C10.1645 26.9448 10.125 26.8495 10.125 26.75V11C10.125 10.9005 10.1645 10.8052 10.2348 10.7348C10.3052 10.6645 10.4005 10.625 10.5 10.625H19.5C19.5995 10.625 19.6948 10.6645 19.7652 10.7348C19.8355 10.8052 19.875 10.9005 19.875 11Z" fill="#010B12"/>
<path fill-rule="evenodd" clip-rule="evenodd" d="M13.875 12.5V6.5C13.875 6.20163 13.7565 5.91548 13.5455 5.7045C13.3345 5.49353 13.0484 5.375 12.75 5.375C12.4516 5.375 12.1655 5.49353 11.9545 5.7045C11.7435 5.91548 11.625 6.20163 11.625 6.5V12.5C11.625 12.7984 11.7435 13.0845 11.9545 13.2955C12.1655 13.5065 12.4516 13.625 12.75 13.625C13.0484 13.625 13.3345 13.5065 13.5455 13.2955C13.7565 13.0845 13.875 12.7984 13.875 12.5Z" fill="#010B12"/>
<path fill-rule="evenodd" clip-rule="evenodd" d="M12.75 0.875C12.3066 0.875197 11.8676 0.962728 11.458 1.1326C11.0484 1.30246 10.6763 1.55134 10.3629 1.86501C10.0495 2.17869 9.80095 2.55102 9.63145 2.96076C9.46194 3.37049 9.3748 3.80959 9.375 4.253C9.3752 4.69641 9.46273 5.13544 9.6326 5.54502C9.80246 5.9546 10.0513 6.32671 10.365 6.64011C10.6787 6.9535 11.051 7.20205 11.4608 7.37155C11.8705 7.54106 12.3096 7.6282 12.753 7.628C13.6485 7.6276 14.5072 7.27148 15.1401 6.63799C15.773 6.00449 16.1284 5.1455 16.128 4.25C16.1276 3.3545 15.7715 2.49583 15.138 1.86289C14.5045 1.22996 13.6455 0.874603 12.75 0.875ZM12.75 3.125C12.8977 3.125 13.044 3.1541 13.1805 3.21064C13.317 3.26717 13.441 3.35004 13.5455 3.4545C13.65 3.55897 13.7328 3.68299 13.7894 3.81948C13.8459 3.95597 13.875 4.10226 13.875 4.25C13.875 4.39774 13.8459 4.54403 13.7894 4.68052C13.7328 4.81701 13.65 4.94103 13.5455 5.0455C13.441 5.14996 13.317 5.23283 13.1805 5.28936C13.044 5.3459 12.8977 5.375 12.75 5.375C12.4516 5.375 12.1655 5.25647 11.9545 5.0455C11.7435 4.83452 11.625 4.54837 11.625 4.25C11.625 3.95163 11.7435 3.66548 11.9545 3.4545C12.1655 3.24353 12.4516 3.125 12.75 3.125ZM4.5 11.375H1.5C1.20163 11.375 0.915483 11.4935 0.704505 11.7045C0.493526 11.9155 0.375 12.2016 0.375 12.5C0.375 12.7984 0.493526 13.0845 0.704505 13.2955C0.915483 13.5065 1.20163 13.625 1.5 13.625H4.5C4.79837 13.625 5.08452 13.5065 5.2955 13.2955C5.50647 13.0845 5.625 12.7984 5.625 12.5C5.625 12.2016 5.50647 11.9155 5.2955 11.7045C5.08452 11.4935 4.79837 11.375 4.5 11.375ZM4.5 16.625H1.5C1.20163 16.625 0.915483 16.7435 0.704505 16.9545C0.493526 17.1655 0.375 17.4516 0.375 17.75C0.375 18.0484 0.493526 18.3345 0.704505 18.5455C0.915483 18.7565 1.20163 18.875 1.5 18.875H4.5C4.79837 18.875 5.08452 18.7565 5.2955 18.5455C5.50647 18.3345 5.625 18.0484 5.625 17.75C5.625 17.4516 5.50647 17.1655 5.2955 16.9545C5.08452 16.7435 4.79837 16.625 4.5 16.625ZM4.5 21.875H1.5C1.20163 21.875 0.915483 21.9935 0.704505 22.2045C0.493526 22.4155 0.375 22.7016 0.375 23C0.375 23.2984 0.493526 23.5845 0.704505 23.7955C0.915483 24.0065 1.20163 24.125 1.5 24.125H4.5C4.79837 24.125 5.08452 24.0065 5.2955 23.7955C5.50647 23.5845 5.625 23.2984 5.625 23C5.625 22.7016 5.50647 22.4155 5.2955 22.2045C5.08452 21.9935 4.79837 21.875 4.5 21.875ZM4.5 27.125H1.5C1.20163 27.125 0.915483 27.2435 0.704505 27.4545C0.493526 27.6655 0.375 27.9516 0.375 28.25C0.375 28.5484 0.493526 28.8345 0.704505 29.0455C0.915483 29.2565 1.20163 29.375 1.5 29.375H4.5C4.79837 29.375 5.08452 29.2565 5.2955 29.0455C5.50647 28.8345 5.625 28.5484 5.625 28.25C5.625 27.9516 5.50647 27.6655 5.2955 27.4545C5.08452 27.2435 4.79837 27.125 4.5 27.125Z" fill="#010B12"/>
</svg>
