<svg width="33" height="24" viewBox="0 0 33 24" fill="none" xmlns="http://www.w3.org/2000/svg">
<path d="M32.1129 10.9094L30.5886 7.45744C30.5086 7.27605 30.3775 7.12185 30.2114 7.0136C30.0452 6.90534 29.8512 6.84771 29.653 6.8477H27.1267C26.8554 6.8477 26.5953 6.95546 26.4035 7.14728C26.2116 7.3391 26.1039 7.59926 26.1039 7.87053V9.48291H25.3181V8.15624C25.3181 7.88497 25.2103 7.62481 25.0185 7.43299C24.8267 7.24117 24.5665 7.13341 24.2953 7.13341H21.5721V4.34246C21.5721 4.07119 21.4643 3.81103 21.2725 3.61922C21.0807 3.4274 20.8205 3.31964 20.5493 3.31964H15.5177V2.34564H20.5493C20.8205 2.34564 21.0807 2.23788 21.2725 2.04606C21.4643 1.85424 21.5721 1.59408 21.5721 1.32281C21.5721 1.05154 21.4643 0.791383 21.2725 0.599566C21.0807 0.407749 20.8205 0.299988 20.5493 0.299988H8.44066C8.16939 0.299988 7.90923 0.407749 7.71741 0.599566C7.5256 0.791383 7.41783 1.05154 7.41783 1.32281C7.41783 1.59408 7.5256 1.85424 7.71741 2.04606C7.90923 2.23788 8.16939 2.34564 8.44066 2.34564H13.4723V3.31964H8.44066C8.16939 3.31964 7.90923 3.4274 7.71741 3.61922C7.5256 3.81103 7.41783 4.07119 7.41783 4.34246V5.19264H5.17389C4.90262 5.19264 4.64246 5.3004 4.45065 5.49221C4.25883 5.68403 4.15107 5.94419 4.15107 6.21546V11.7042H2.74584V6.21546C2.74584 5.94419 2.63808 5.68403 2.44627 5.49221C2.25445 5.3004 1.99429 5.19264 1.72302 5.19264C1.45175 5.19264 1.19159 5.3004 0.999774 5.49221C0.807957 5.68403 0.700195 5.94419 0.700195 6.21546L0.700195 19.2389C0.700195 19.8039 1.15815 20.2617 1.72302 20.2617C2.28789 20.2617 2.74584 19.8039 2.74584 19.2389V13.7499H4.15107V19.2389C4.15107 19.5102 4.25883 19.7703 4.45065 19.9621C4.64246 20.1539 4.90262 20.2617 5.17389 20.2617H9.14777L13.1856 23.6387C13.3696 23.7926 13.6019 23.8769 13.8419 23.8769H24.2954C24.5667 23.8769 24.8268 23.7692 25.0186 23.5773C25.2105 23.3855 25.3182 23.1254 25.3182 22.8541V20.0659H26.104V21.6783C26.104 21.9495 26.2118 22.2097 26.4036 22.4015C26.5954 22.5933 26.8556 22.7011 27.1268 22.7011H29.6531C29.8514 22.7011 30.0454 22.6434 30.2115 22.5352C30.3776 22.4269 30.5087 22.2727 30.5888 22.0913L32.1131 18.6394C32.1705 18.5092 32.2002 18.3685 32.2002 18.2263V11.3225C32.2002 11.1802 32.1704 11.0395 32.1129 10.9094ZM30.1545 18.0107L28.9868 20.6556H28.1497V19.0432C28.1497 18.7719 28.0419 18.5118 27.8501 18.3199C27.6583 18.1281 27.3981 18.0204 27.1268 18.0204H24.2954C24.0241 18.0204 23.764 18.1281 23.5721 18.3199C23.3803 18.5118 23.2726 18.7719 23.2726 19.0432V21.8314H14.2131L10.1752 18.4544C9.99121 18.3005 9.75891 18.2162 9.51899 18.2162H6.19672V7.23829H8.44066C8.57498 7.23829 8.70798 7.21183 8.83208 7.16043C8.95617 7.10903 9.06893 7.03369 9.16391 6.93871C9.25888 6.84373 9.33422 6.73097 9.38563 6.60688C9.43703 6.48278 9.46348 6.34978 9.46348 6.21546V5.36529H19.5266V8.15651C19.5266 8.42778 19.6343 8.68794 19.8262 8.87976C20.018 9.07157 20.2781 9.17933 20.5494 9.17933H23.2726V10.506C23.2726 10.7773 23.3803 11.0374 23.5721 11.2293C23.764 11.4211 24.0241 11.5288 24.2954 11.5288H27.1268C27.3981 11.5288 27.6583 11.4211 27.8501 11.2293C28.0419 11.0374 28.1497 10.7773 28.1497 10.506V8.89349H28.9868L30.1545 11.5384V18.0107Z" fill="#010B12"/>
</svg>
