<svg width="24" height="30" viewBox="0 0 24 30" fill="none" xmlns="http://www.w3.org/2000/svg">
<path fill-rule="evenodd" clip-rule="evenodd" d="M4.11769 25.8587C4.3123 26.8961 4.86344 27.833 5.67576 28.5071C6.48808 29.1811 7.51047 29.5501 8.56605 29.55H20.6472C21.4111 29.55 22.1436 29.2466 22.6837 28.7065C23.2238 28.1664 23.5272 27.4338 23.5272 26.67V23.3786C23.5264 22.1785 23.0493 21.0279 22.2007 20.1794C21.3522 19.3308 20.2016 18.8537 19.0015 18.8529H12.1455C12.0492 18.8529 11.9559 18.8191 11.882 18.7575C11.808 18.6959 11.758 18.6102 11.7406 18.5155L9.18649 4.46602C8.99685 3.42317 8.44719 2.47996 7.63336 1.80086C6.81952 1.12176 5.79314 0.749858 4.73318 0.75H2.88011C2.45686 0.749984 2.0388 0.843259 1.65569 1.02319C1.27259 1.20312 0.933848 1.46527 0.663584 1.79101C0.393319 2.11674 0.198172 2.49804 0.0920302 2.90777C-0.0141119 3.31749 -0.0286397 3.74558 0.0494809 4.16157L4.11769 25.8587ZM6.54512 25.4028L2.47691 3.7057C2.46585 3.64625 2.46793 3.5851 2.483 3.52654C2.49806 3.46798 2.52576 3.41342 2.56413 3.36669C2.6028 3.32044 2.65113 3.28321 2.70571 3.25762C2.7603 3.23204 2.81982 3.21871 2.88011 3.21857H4.73318C5.2149 3.21848 5.68136 3.38744 6.05128 3.69601C6.42119 4.00457 6.67109 4.43316 6.75741 4.90707L9.31156 18.9565C9.43221 19.6202 9.78197 20.2205 10.2999 20.6526C10.8178 21.0848 11.4709 21.3215 12.1455 21.3214H19.0015C19.5471 21.3214 20.0704 21.5382 20.4561 21.924C20.8419 22.3097 21.0587 22.833 21.0587 23.3786V26.67C21.0587 26.7791 21.0153 26.8838 20.9382 26.9609C20.861 27.0381 20.7564 27.0814 20.6472 27.0814H8.56605C8.08632 27.0812 7.62175 26.9133 7.25272 26.6067C6.88368 26.3002 6.63339 25.8743 6.54512 25.4028Z" fill="#010B12"/>
</svg>
