<svg width="32" height="34" viewBox="0 0 32 34" fill="none" xmlns="http://www.w3.org/2000/svg">
<path fill-rule="evenodd" clip-rule="evenodd" d="M23.125 3.5C23.125 2.804 22.849 2.1365 22.3555 1.6445C22.1121 1.40044 21.8229 1.20684 21.5045 1.07479C21.186 0.942739 20.8447 0.874845 20.5 0.875H5.5C4.804 0.875 4.1365 1.151 3.6445 1.6445C3.40044 1.88793 3.20684 2.17713 3.07479 2.49554C2.94274 2.81395 2.87485 3.1553 2.875 3.5V32C2.875 32.621 3.379 33.125 4 33.125H22C22.2984 33.125 22.5845 33.0065 22.7955 32.7955C23.0065 32.5845 23.125 32.2984 23.125 32V3.5ZM20.875 3.5V30.875H5.125V3.5C5.125 3.40054 5.16451 3.30516 5.23483 3.23484C5.30516 3.16451 5.40054 3.125 5.5 3.125H20.5C20.5995 3.125 20.6948 3.16451 20.7652 3.23484C20.8355 3.30516 20.875 3.40054 20.875 3.5Z" fill="#010B12"/>
<path fill-rule="evenodd" clip-rule="evenodd" d="M20.125 5.75C20.125 5.45163 20.0065 5.16548 19.7955 4.9545C19.5845 4.74353 19.2984 4.625 19 4.625H7C6.70163 4.625 6.41548 4.74353 6.2045 4.9545C5.99353 5.16548 5.875 5.45163 5.875 5.75V12.5C5.875 13.121 6.379 13.625 7 13.625H19C19.2984 13.625 19.5845 13.5065 19.7955 13.2955C20.0065 13.0845 20.125 12.7984 20.125 12.5V5.75ZM17.875 6.875V11.375H8.125V6.875H17.875ZM1.75 33.125H24.25C24.5484 33.125 24.8345 33.0065 25.0455 32.7955C25.2565 32.5845 25.375 32.2984 25.375 32C25.375 31.7016 25.2565 31.4155 25.0455 31.2045C24.8345 30.9935 24.5484 30.875 24.25 30.875H1.75C1.45163 30.875 1.16548 30.9935 0.954505 31.2045C0.743526 31.4155 0.625 31.7016 0.625 32C0.625 32.2984 0.743526 32.5845 0.954505 32.7955C1.16548 33.0065 1.45163 33.125 1.75 33.125ZM28 26.375C27.8523 26.3751 27.706 26.346 27.5695 26.2894C27.4331 26.2327 27.3092 26.1497 27.205 26.045C27.1003 25.9408 27.0173 25.8169 26.9606 25.6805C26.904 25.544 26.8749 25.3977 26.875 25.25V21.5C26.875 20.804 26.599 20.1365 26.1055 19.6445C25.8621 19.4004 25.5729 19.2068 25.2545 19.0748C24.936 18.9427 24.5947 18.8748 24.25 18.875H22C21.7016 18.875 21.4155 18.9935 21.2045 19.2045C20.9935 19.4155 20.875 19.7016 20.875 20C20.875 20.2984 20.9935 20.5845 21.2045 20.7955C21.4155 21.0065 21.7016 21.125 22 21.125H24.25C24.3495 21.125 24.4448 21.1645 24.5152 21.2348C24.5855 21.3052 24.625 21.4005 24.625 21.5V25.25C24.625 25.6932 24.7123 26.1321 24.8819 26.5416C25.0515 26.951 25.3001 27.3231 25.6135 27.6365C25.9269 27.9499 26.299 28.1985 26.7084 28.3681C27.1179 28.5377 27.5568 28.625 28 28.625C28.4432 28.625 28.8821 28.5377 29.2916 28.3681C29.701 28.1985 30.0731 27.9499 30.3865 27.6365C30.6999 27.3231 30.9485 26.951 31.1181 26.5416C31.2877 26.1321 31.375 25.6932 31.375 25.25V10.742C31.375 9.6485 30.94 8.6 30.1675 7.826L27.295 4.955C27.1906 4.8506 27.0667 4.76778 26.9303 4.71128C26.7938 4.65478 26.6476 4.6257 26.5 4.6257C26.3524 4.6257 26.2062 4.65478 26.0697 4.71128C25.9333 4.76778 25.8094 4.8506 25.705 4.955C25.6006 5.0594 25.5178 5.18334 25.4613 5.31975C25.4048 5.45616 25.3757 5.60235 25.3757 5.75C25.3757 5.89765 25.4048 6.04384 25.4613 6.18025C25.5178 6.31666 25.6006 6.4406 25.705 6.545L28.576 9.4175C28.927 9.7685 29.125 10.2455 29.125 10.742V25.25C29.125 25.5484 29.0065 25.8345 28.7955 26.0455C28.5845 26.2565 28.2984 26.375 28 26.375ZM13.795 17.705C13.6907 17.6005 13.5667 17.5176 13.4303 17.461C13.2939 17.4045 13.1477 17.3754 13 17.3754C12.8523 17.3754 12.7061 17.4045 12.5697 17.461C12.4333 17.5176 12.3093 17.6005 12.205 17.705C12.205 17.705 10.9585 18.9485 9.9625 20.5415C9.232 21.713 8.6605 23.066 8.6605 24.2855C8.69024 25.4167 9.16049 26.4915 9.97106 27.281C10.7816 28.0706 11.8685 28.5124 13 28.5124C14.1315 28.5124 15.2184 28.0706 16.0289 27.281C16.8395 26.4915 17.3098 25.4167 17.3395 24.2855C17.3395 23.066 16.768 21.713 16.0375 20.5415C15.0415 18.9485 13.795 17.705 13.795 17.705ZM13 20.1845C13.3465 20.603 13.7575 21.1415 14.1295 21.734C14.632 22.5395 15.0895 23.447 15.0895 24.2855C15.0895 24.8397 14.8694 25.3711 14.4775 25.763C14.0856 26.1549 13.5542 26.375 13 26.375C12.4458 26.375 11.9144 26.1549 11.5225 25.763C11.1306 25.3711 10.9105 24.8397 10.9105 24.2855C10.9105 23.447 11.368 22.5395 11.8705 21.734C12.2134 21.1938 12.5907 20.6763 13 20.1845Z" fill="#010B12"/>
</svg>
