<svg width="27" height="34" viewBox="0 0 27 34" fill="none" xmlns="http://www.w3.org/2000/svg">
<path d="M13.1998 13.9758L11.6053 16.527C11.5209 16.6622 11.4742 16.8174 11.47 16.9767C11.4659 17.136 11.5044 17.2935 11.5817 17.4329C11.659 17.5723 11.7721 17.6884 11.9094 17.7693C12.0467 17.8502 12.2031 17.8929 12.3625 17.8929H13.3028L12.562 19.0777C12.4998 19.1771 12.4578 19.2879 12.4385 19.4036C12.4191 19.5192 12.4227 19.6376 12.4491 19.7519C12.4755 19.8662 12.5242 19.9742 12.5923 20.0696C12.6604 20.1651 12.7467 20.2462 12.8462 20.3084C12.9456 20.3705 13.0563 20.4125 13.172 20.4319C13.2876 20.4512 13.4059 20.4476 13.5202 20.4212C13.6344 20.3948 13.7423 20.3462 13.8378 20.278C13.9332 20.2099 14.0143 20.1236 14.0764 20.0242L15.6709 17.473C15.7553 17.3378 15.802 17.1825 15.8061 17.0232C15.8103 16.864 15.7717 16.7064 15.6945 16.5671C15.6172 16.4277 15.504 16.3116 15.3668 16.2307C15.2295 16.1498 15.073 16.1071 14.9137 16.1071H13.9733L14.7142 14.9223C14.8397 14.7215 14.8803 14.479 14.827 14.2483C14.7738 14.0175 14.631 13.8174 14.4302 13.6919C14.2294 13.5664 13.9869 13.5258 13.7562 13.579C13.5254 13.6323 13.3253 13.775 13.1998 13.9758Z" fill="#010B12"/>
<path d="M22.3126 11.7701H24.3535C24.9961 11.7693 25.6121 11.5137 26.0664 11.0593C26.5207 10.605 26.7764 9.98898 26.7772 9.34645V3.22361C26.7764 2.58107 26.5207 1.96509 26.0664 1.51074C25.6121 1.0564 24.9961 0.800798 24.3535 0.799988H22.3126C21.6701 0.800798 21.0541 1.0564 20.5997 1.51074C20.1454 1.96509 19.8898 2.58107 19.889 3.22361V5.39211H7.38819V3.22361C7.38738 2.58107 7.13177 1.96509 6.67743 1.51074C6.22309 1.0564 5.6071 0.800798 4.96457 0.799988H2.92362C2.28109 0.800798 1.6651 1.0564 1.21076 1.51074C0.756415 1.96509 0.50081 2.58107 0.5 3.22361V9.34645C0.50081 9.98898 0.756415 10.605 1.21076 11.0593C1.6651 11.5137 2.28109 11.7693 2.92362 11.7701H4.96457C5.6071 11.7693 6.22309 11.5137 6.67743 11.0593C7.13177 10.605 7.38738 9.98898 7.38819 9.34645V7.17794H12.7457V10.0475C11.0538 10.2629 9.49861 11.0878 8.37138 12.3677C7.24414 13.6475 6.62227 15.2945 6.62227 17C6.62227 18.7055 7.24414 20.3524 8.37138 21.6323C9.49861 22.9121 11.0538 23.7371 12.7457 23.9525V26.822H7.38819V24.6535C7.38738 24.011 7.13177 23.395 6.67743 22.9407C6.22309 22.4863 5.6071 22.2307 4.96457 22.2299H2.92362C2.28109 22.2307 1.6651 22.4863 1.21076 22.9407C0.756415 23.395 0.50081 24.011 0.5 24.6535V30.7764C0.50081 31.4189 0.756415 32.0349 1.21076 32.4892C1.6651 32.9436 2.28109 33.1992 2.92362 33.2H4.96457C5.6071 33.1992 6.22309 32.9436 6.67743 32.4892C7.13177 32.0349 7.38738 31.4189 7.38819 30.7764V28.6079H19.889V30.7764C19.8898 31.4189 20.1454 32.0349 20.5997 32.4892C21.0541 32.9436 21.6701 33.1992 22.3126 33.2H24.3535C24.9961 33.1992 25.6121 32.9436 26.0664 32.4892C26.5207 32.0349 26.7764 31.4189 26.7772 30.7764V24.6535C26.7764 24.011 26.5207 23.395 26.0664 22.9407C25.6121 22.4863 24.9961 22.2307 24.3535 22.2299H22.3126C21.6701 22.2307 21.0541 22.4863 20.5997 22.9407C20.1454 23.395 19.8898 24.011 19.889 24.6535V26.822H14.5315V23.9525C16.2233 23.7371 17.7786 22.9121 18.9058 21.6323C20.033 20.3524 20.6549 18.7055 20.6549 17C20.6549 15.2945 20.033 13.6475 18.9058 12.3677C17.7786 11.0878 16.2233 10.2629 14.5315 10.0475V7.17794H19.889V9.34645C19.8898 9.98898 20.1454 10.605 20.5997 11.0593C21.0541 11.5137 21.6701 11.7693 22.3126 11.7701ZM21.6748 3.22361C21.6751 3.05454 21.7424 2.89247 21.8619 2.77292C21.9815 2.65337 22.1435 2.58608 22.3126 2.58581H24.3535C24.5226 2.58608 24.6847 2.65337 24.8042 2.77292C24.9238 2.89247 24.9911 3.05454 24.9913 3.22361V9.34645C24.9911 9.51552 24.9238 9.67758 24.8042 9.79714C24.6847 9.91669 24.5226 9.98397 24.3535 9.98424H22.3126C22.1435 9.98397 21.9815 9.91669 21.8619 9.79714C21.7424 9.67758 21.6751 9.51552 21.6748 9.34645V3.22361ZM5.60236 9.34645C5.60209 9.51552 5.53481 9.67758 5.41526 9.79714C5.29571 9.91669 5.13364 9.98397 4.96457 9.98424H2.92362C2.75455 9.98397 2.59248 9.91669 2.47293 9.79714C2.35338 9.67758 2.2861 9.51552 2.28583 9.34645V3.22361C2.2861 3.05454 2.35338 2.89247 2.47293 2.77292C2.59248 2.65337 2.75455 2.58608 2.92362 2.58581H4.96457C5.13364 2.58608 5.29571 2.65337 5.41526 2.77292C5.53481 2.89247 5.60209 3.05454 5.60236 3.22361V9.34645ZM5.60236 30.7764C5.60209 30.9454 5.53481 31.1075 5.41526 31.2271C5.29571 31.3466 5.13364 31.4139 4.96457 31.4142H2.92362C2.75455 31.4139 2.59248 31.3466 2.47293 31.2271C2.35338 31.1075 2.2861 30.9454 2.28583 30.7764V24.6535C2.2861 24.4845 2.35338 24.3224 2.47293 24.2028C2.59248 24.0833 2.75455 24.016 2.92362 24.0157H4.96457C5.13364 24.016 5.29571 24.0833 5.41526 24.2028C5.53481 24.3224 5.60209 24.4845 5.60236 24.6535V30.7764ZM21.6748 24.6535C21.6751 24.4845 21.7424 24.3224 21.8619 24.2028C21.9815 24.0833 22.1435 24.016 22.3126 24.0157H24.3535C24.5226 24.016 24.6847 24.0833 24.8042 24.2028C24.9238 24.3224 24.9911 24.4845 24.9913 24.6535V30.7764C24.9911 30.9454 24.9238 31.1075 24.8042 31.2271C24.6847 31.3466 24.5226 31.4139 24.3535 31.4142H22.3126C22.1435 31.4139 21.9815 31.3466 21.8619 31.2271C21.7424 31.1075 21.6751 30.9454 21.6748 30.7764V24.6535ZM18.8685 17C18.8685 18.0344 18.5618 19.0455 17.9871 19.9056C17.4124 20.7656 16.5956 21.436 15.64 21.8318C14.6843 22.2276 13.6328 22.3312 12.6183 22.1294C11.6038 21.9276 10.6719 21.4295 9.94047 20.6981C9.20905 19.9667 8.71095 19.0348 8.50915 18.0203C8.30736 17.0058 8.41093 15.9542 8.80677 14.9986C9.20261 14.0429 9.87294 13.2261 10.733 12.6515C11.5931 12.0768 12.6042 11.7701 13.6386 11.7701C15.0252 11.7716 16.3546 12.323 17.3351 13.3035C18.3155 14.284 18.867 15.6134 18.8685 17Z" fill="#010B12"/>
</svg>
