<svg width="22" height="23" viewBox="0 0 22 23" fill="none" xmlns="http://www.w3.org/2000/svg">
<path fill-rule="evenodd" clip-rule="evenodd" d="M13.8213 16.718C14.1173 15.078 15.3943 13.723 17.0193 13.36C17.8115 13.1768 18.6394 13.2215 19.4073 13.489C19.6665 13.5818 19.944 13.612 20.2172 13.5772C20.4903 13.5424 20.7514 13.4435 20.979 13.2885C21.2067 13.1336 21.3945 12.9271 21.5271 12.6858C21.6598 12.4445 21.7335 12.1752 21.7423 11.9C21.8073 10.264 21.4863 8.52299 20.5173 6.70099C18.6193 3.12799 14.9313 0.707991 10.8863 0.750991C4.69129 0.814991 -0.248714 6.11899 0.290286 12.442C0.693286 17.16 4.28229 21.12 8.92629 22.044H8.92729C10.3853 22.334 11.7903 22.306 13.1093 22.036C14.2503 21.804 14.8053 20.511 14.2513 19.486C13.7961 18.6395 13.6444 17.6627 13.8213 16.718ZM12.3443 16.452C12.1066 17.7314 12.3137 19.0536 12.9313 20.199H12.9323C13.0083 20.341 12.9683 20.534 12.8103 20.566H12.8093C11.6252 20.8091 10.4043 20.8114 9.21929 20.573C5.22329 19.778 2.13229 16.374 1.78529 12.314C1.32029 6.87299 5.57029 2.30599 10.9013 2.25099H10.9023C14.3903 2.21399 17.5563 4.32399 19.1923 7.40499C20.0193 8.95999 20.2983 10.443 20.2433 11.84C20.2427 11.88 20.2325 11.9193 20.2138 11.9547C20.195 11.99 20.1681 12.0204 20.1353 12.0433C20.1025 12.0663 20.0648 12.0811 20.0251 12.0866C19.9855 12.0921 19.9451 12.0881 19.9073 12.075L19.9063 12.074C18.8732 11.7124 17.7589 11.6507 16.6923 11.896C14.4853 12.389 12.7463 14.225 12.3443 16.452Z" fill="#010B12"/>
<path fill-rule="evenodd" clip-rule="evenodd" d="M13.25 8.50001C13.2693 9.21652 13.5675 9.89719 14.0812 10.3971C14.5948 10.8971 15.2832 11.1768 16 11.1768C16.7168 11.1768 17.4052 10.8971 17.9188 10.3971C18.4325 9.89719 18.7307 9.21652 18.75 8.50001C18.7307 7.78351 18.4325 7.10283 17.9188 6.60288C17.4052 6.10293 16.7168 5.82318 16 5.82318C15.2832 5.82318 14.5948 6.10293 14.0812 6.60288C13.5675 7.10283 13.2693 7.78351 13.25 8.50001ZM14.75 8.50001C14.75 8.16849 14.8817 7.85055 15.1161 7.61613C15.3505 7.38171 15.6685 7.25001 16 7.25001C16.3315 7.25001 16.6495 7.38171 16.8839 7.61613C17.1183 7.85055 17.25 8.16849 17.25 8.50001C17.25 8.83153 17.1183 9.14948 16.8839 9.3839C16.6495 9.61832 16.3315 9.75001 16 9.75001C15.6685 9.75001 15.3505 9.61832 15.1161 9.3839C14.8817 9.14948 14.75 8.83153 14.75 8.50001ZM8.25 5.50001C8.26933 6.21652 8.56753 6.89719 9.08115 7.39714C9.59477 7.89709 10.2832 8.17684 11 8.17684C11.7168 8.17684 12.4052 7.89709 12.9189 7.39714C13.4325 6.89719 13.7307 6.21652 13.75 5.50001C13.7307 4.78351 13.4325 4.10283 12.9189 3.60288C12.4052 3.10293 11.7168 2.82318 11 2.82318C10.2832 2.82318 9.59477 3.10293 9.08115 3.60288C8.56753 4.10283 8.26933 4.78351 8.25 5.50001ZM9.75 5.50001C9.75 5.16849 9.8817 4.85055 10.1161 4.61613C10.3505 4.38171 10.6685 4.25001 11 4.25001C11.3315 4.25001 11.6495 4.38171 11.8839 4.61613C12.1183 4.85055 12.25 5.16849 12.25 5.50001C12.25 5.83153 12.1183 6.14948 11.8839 6.3839C11.6495 6.61832 11.3315 6.75001 11 6.75001C10.6685 6.75001 10.3505 6.61832 10.1161 6.3839C9.8817 6.14948 9.75 5.83153 9.75 5.50001ZM3.25 8.50001C3.26932 9.21652 3.56753 9.89719 4.08115 10.3971C4.59477 10.8971 5.28323 11.1768 6 11.1768C6.71677 11.1768 7.40523 10.8971 7.91885 10.3971C8.43247 9.89719 8.73068 9.21652 8.75 8.50001C8.73068 7.78351 8.43247 7.10283 7.91885 6.60288C7.40523 6.10293 6.71677 5.82318 6 5.82318C5.28323 5.82318 4.59477 6.10293 4.08115 6.60288C3.56753 7.10283 3.26932 7.78351 3.25 8.50001ZM4.75 8.50001C4.75 8.16849 4.8817 7.85055 5.11612 7.61613C5.35054 7.38171 5.66848 7.25001 6 7.25001C6.33152 7.25001 6.64946 7.38171 6.88388 7.61613C7.1183 7.85055 7.25 8.16849 7.25 8.50001C7.25 8.83153 7.1183 9.14948 6.88388 9.3839C6.64946 9.61832 6.33152 9.75001 6 9.75001C5.66848 9.75001 5.35054 9.61832 5.11612 9.3839C4.8817 9.14948 4.75 8.83153 4.75 8.50001ZM4.25 15.5C4.25 17.57 5.93 19.25 8 19.25C10.07 19.25 11.75 17.57 11.75 15.5C11.75 13.43 10.07 11.75 8 11.75C5.93 11.75 4.25 13.43 4.25 15.5ZM5.75 15.5C5.75027 14.903 5.98768 14.3306 6.41001 13.9086C6.83234 13.4867 7.405 13.2497 8.002 13.25C8.599 13.2503 9.17145 13.4877 9.59341 13.91C10.0154 14.3324 10.2523 14.905 10.252 15.502C10.2517 16.099 10.0143 16.6715 9.59199 17.0934C9.16966 17.5154 8.597 17.7523 8 17.752C7.403 17.7517 6.83055 17.5143 6.4086 17.092C5.98664 16.6697 5.74974 16.097 5.75 15.5Z" fill="#010B12"/>
</svg>
