<svg width="16" height="20" viewBox="0 0 16 20" fill="none" xmlns="http://www.w3.org/2000/svg">
<path fill-rule="evenodd" clip-rule="evenodd" d="M2.74512 16.7391C2.87486 17.4308 3.24229 18.0553 3.78384 18.5047C4.32539 18.9541 5.00698 19.2 5.7107 19.2H13.7648C14.274 19.2 14.7624 18.9977 15.1225 18.6376C15.4825 18.2776 15.6848 17.7892 15.6848 17.28V15.0857C15.6842 14.2857 15.3662 13.5186 14.8005 12.9529C14.2348 12.3872 13.4677 12.0692 12.6677 12.0686H8.09699C8.03279 12.0686 7.97062 12.0461 7.9213 12.005C7.87198 11.9639 7.83865 11.9068 7.82709 11.8437L6.12432 2.47735C5.9979 1.78211 5.63146 1.15331 5.0889 0.700573C4.54635 0.24784 3.86209 -9.4937e-05 3.15546 2.72698e-08H1.92007C1.6379 -1.07067e-05 1.3592 0.0621727 1.1038 0.182125C0.848391 0.302077 0.622566 0.476849 0.442389 0.694004C0.262213 0.911158 0.132115 1.16536 0.0613535 1.43851C-0.00940791 1.71166 -0.0190932 1.99706 0.0329873 2.27438L2.74512 16.7391ZM4.36341 16.4352L1.65127 1.97047C1.6439 1.93084 1.64529 1.89007 1.65533 1.85103C1.66538 1.81199 1.68384 1.77561 1.70942 1.74446C1.7352 1.71362 1.76742 1.68881 1.80381 1.67175C1.8402 1.65469 1.87988 1.6458 1.92007 1.64571H3.15546C3.4766 1.64565 3.78758 1.7583 4.03418 1.964C4.28079 2.16971 4.44739 2.45544 4.50494 2.77138L6.20771 12.1377C6.28814 12.5801 6.52132 12.9803 6.86658 13.2684C7.21185 13.5566 7.64729 13.7143 8.09699 13.7143H12.6677C13.0314 13.7143 13.3802 13.8588 13.6374 14.116C13.8946 14.3732 14.0391 14.722 14.0391 15.0857V17.28C14.0391 17.3527 14.0102 17.4225 13.9588 17.474C13.9073 17.5254 13.8376 17.5543 13.7648 17.5543H5.7107C5.39088 17.5541 5.08117 17.4422 4.83515 17.2378C4.58912 17.0335 4.42226 16.7496 4.36341 16.4352Z" fill="#010B12"/>
</svg>
