<svg width="22" height="17" viewBox="0 0 22 17" fill="none" xmlns="http://www.w3.org/2000/svg">
<path d="M21.7426 7.77296L20.7264 5.47165C20.673 5.35072 20.5856 5.24792 20.4749 5.17575C20.3641 5.10358 20.2348 5.06516 20.1026 5.06516H18.4185C18.2376 5.06516 18.0642 5.137 17.9363 5.26487C17.8084 5.39275 17.7366 5.56619 17.7366 5.74704V6.82196H17.2127V5.93751C17.2127 5.75666 17.1409 5.58323 17.013 5.45535C16.8851 5.32747 16.7117 5.25563 16.5308 5.25563H14.7154V3.395C14.7154 3.21415 14.6435 3.04071 14.5157 2.91283C14.3878 2.78495 14.2143 2.71311 14.0335 2.71311H10.6791V2.06378H14.0335C14.2143 2.06378 14.3878 1.99194 14.5157 1.86406C14.6435 1.73618 14.7154 1.56274 14.7154 1.3819C14.7154 1.20105 14.6435 1.02761 14.5157 0.899731C14.3878 0.771853 14.2143 0.700012 14.0335 0.700012H5.96109C5.78024 0.700012 5.6068 0.771853 5.47893 0.899731C5.35105 1.02761 5.27921 1.20105 5.27921 1.3819C5.27921 1.56274 5.35105 1.73618 5.47893 1.86406C5.6068 1.99194 5.78024 2.06378 5.96109 2.06378H9.3155V2.71311H5.96109C5.78024 2.71311 5.6068 2.78495 5.47893 2.91283C5.35105 3.04071 5.27921 3.21415 5.27921 3.395V3.96178H3.78325C3.6024 3.96178 3.42896 4.03362 3.30108 4.1615C3.17321 4.28937 3.10136 4.46281 3.10136 4.64366V8.30283H2.16455V4.64366C2.16455 4.46281 2.09271 4.28937 1.96483 4.1615C1.83695 4.03362 1.66351 3.96178 1.48266 3.96178C1.30182 3.96178 1.12838 4.03362 1.0005 4.1615C0.872622 4.28937 0.800781 4.46281 0.800781 4.64366L0.800781 13.3259C0.800781 13.7026 1.10608 14.0078 1.48266 14.0078C1.85925 14.0078 2.16455 13.7026 2.16455 13.3259V9.66659H3.10136V13.3259C3.10136 13.5068 3.17321 13.6802 3.30108 13.8081C3.42896 13.936 3.6024 14.0078 3.78325 14.0078H6.4325L9.12439 16.2591C9.24707 16.3618 9.40194 16.418 9.56189 16.418H16.5309C16.7118 16.418 16.8852 16.3461 17.0131 16.2182C17.141 16.0904 17.2128 15.9169 17.2128 15.7361V13.8773H17.7367V14.9522C17.7367 15.133 17.8085 15.3065 17.9364 15.4344C18.0643 15.5622 18.2377 15.6341 18.4185 15.6341H20.1027C20.2349 15.6341 20.3642 15.5956 20.475 15.5235C20.5857 15.4513 20.6731 15.3485 20.7265 15.2276L21.7427 12.9263C21.781 12.8395 21.8008 12.7457 21.8008 12.6509V8.04835C21.8008 7.9535 21.781 7.8597 21.7426 7.77296ZM20.437 12.5071L19.6585 14.2704H19.1004V13.1955C19.1004 13.0146 19.0286 12.8412 18.9007 12.7133C18.7728 12.5854 18.5994 12.5136 18.4185 12.5136H16.5309C16.3501 12.5136 16.1766 12.5854 16.0488 12.7133C15.9209 12.8412 15.849 13.0146 15.849 13.1955V15.0543H9.80937L7.11747 12.803C6.99479 12.7004 6.83993 12.6441 6.67998 12.6442H4.46513V5.32554H5.96109C6.05064 5.32554 6.13931 5.30791 6.22204 5.27364C6.30477 5.23937 6.37994 5.18914 6.44326 5.12583C6.50657 5.06251 6.5568 4.98734 6.59107 4.90461C6.62534 4.82188 6.64297 4.73321 6.64297 4.64366V4.07688H13.3517V5.93769C13.3517 6.11854 13.4235 6.29198 13.5514 6.41986C13.6793 6.54774 13.8527 6.61958 14.0336 6.61958H15.849V7.50403C15.849 7.68487 15.9209 7.85831 16.0488 7.98619C16.1766 8.11407 16.3501 8.18591 16.5309 8.18591H18.4185C18.5994 8.18591 18.7728 8.11407 18.9007 7.98619C19.0286 7.85831 19.1004 7.68487 19.1004 7.50403V6.42901H19.6585L20.437 8.19227V12.5071Z" fill="#010B12"/>
</svg>
