<svg width="30" height="26" viewBox="0 0 30 26" fill="none" xmlns="http://www.w3.org/2000/svg">
<path d="M11.8315 25.6166C17.8309 25.6166 22.6943 20.7532 22.6943 14.7538C22.6943 8.75451 17.8309 3.89108 11.8315 3.89108C5.83218 3.89108 0.96875 8.75451 0.96875 14.7538C0.96875 20.7532 5.83218 25.6166 11.8315 25.6166Z" fill="#E9F4FA"/>
<path d="M11.9547 23.15L11.8169 22.9152C9.71233 19.3294 4.11959 11.7196 4.0631 11.6432L3.98242 11.5336L5.88784 9.65053L11.9193 13.8622C15.7169 8.93422 19.2598 5.54948 21.5709 3.57293C24.0989 1.41078 25.7445 0.415392 25.7611 0.405854L25.7985 0.383453H29.0307L28.7219 0.658407C20.7817 7.73078 12.1753 22.7624 12.0896 22.9134L11.9547 23.15Z" fill="#3931ED"/>
</svg>
