<svg width="20" height="17" viewBox="0 0 20 17" fill="none" xmlns="http://www.w3.org/2000/svg">
<path d="M18.3792 5.07L17.1492 6.92C17.7424 8.10307 18.0328 9.41483 17.9944 10.7377C17.956 12.0606 17.59 13.3533 16.9292 14.5H3.0692C2.21036 13.0101 1.85449 11.2831 2.05434 9.57507C2.25418 7.86701 2.99911 6.26882 4.17867 5.01743C5.35824 3.76603 6.90966 2.92804 8.60294 2.6277C10.2962 2.32735 12.0412 2.58063 13.5792 3.35L15.4292 2.12C13.5457 0.912215 11.3115 0.371004 9.08408 0.582935C6.85665 0.794867 4.76464 1.7477 3.14269 3.28901C1.52074 4.83033 0.462557 6.87107 0.137413 9.08481C-0.187731 11.2986 0.238946 13.5574 1.3492 15.5C1.52371 15.8023 1.77428 16.0536 2.07603 16.2291C2.37777 16.4045 2.72017 16.4979 3.0692 16.5H16.9192C17.2716 16.5014 17.6181 16.4096 17.9237 16.234C18.2293 16.0584 18.483 15.8052 18.6592 15.5C19.5806 13.9039 20.043 12.0843 19.9953 10.242C19.9477 8.39964 19.3918 6.60632 18.3892 5.06L18.3792 5.07Z" fill="#010B12"/>
<path d="M8.58936 11.91C8.7751 12.0959 8.99568 12.2435 9.23848 12.3441C9.48127 12.4448 9.74153 12.4966 10.0044 12.4966C10.2672 12.4966 10.5274 12.4448 10.7702 12.3441C11.013 12.2435 11.2336 12.0959 11.4194 11.91L17.0794 3.41998L8.58936 9.07998C8.40317 9.26559 8.25544 9.48613 8.15464 9.72894C8.05384 9.97176 8.00195 10.2321 8.00195 10.495C8.00195 10.7579 8.05384 11.0182 8.15464 11.261C8.25544 11.5038 8.40317 11.7244 8.58936 11.91Z" fill="#010B12"/>
</svg>
