<svg width="18" height="23" viewBox="0 0 18 23" fill="none" xmlns="http://www.w3.org/2000/svg">
<path d="M8.46587 9.48388L7.40288 11.1847C7.3466 11.2748 7.31547 11.3783 7.3127 11.4845C7.30994 11.5907 7.33564 11.6957 7.38715 11.7886C7.43865 11.8815 7.51408 11.959 7.60561 12.0129C7.69714 12.0668 7.80144 12.0953 7.90767 12.0953H8.53458L8.04067 12.8851C7.99922 12.9514 7.97124 13.0252 7.95833 13.1024C7.94542 13.1795 7.94783 13.2584 7.96542 13.3346C7.98302 13.4108 8.01545 13.4828 8.06087 13.5464C8.1063 13.6101 8.16381 13.6642 8.23014 13.7056C8.29642 13.747 8.37022 13.775 8.44732 13.7879C8.52441 13.8008 8.6033 13.7984 8.67946 13.7808C8.75563 13.7632 8.82758 13.7308 8.8912 13.6854C8.95482 13.6399 9.00887 13.5824 9.05026 13.5161L10.1133 11.8153C10.1695 11.7252 10.2007 11.6217 10.2034 11.5155C10.2062 11.4093 10.1805 11.3043 10.129 11.2114C10.0775 11.1185 10.002 11.041 9.91052 10.9871C9.81899 10.9332 9.71469 10.9047 9.60846 10.9047H8.98155L9.47546 10.1149C9.55913 9.981 9.5862 9.81936 9.5507 9.66553C9.5152 9.51169 9.42004 9.37826 9.28616 9.29459C9.15228 9.21091 8.99064 9.18385 8.83681 9.21935C8.68298 9.25485 8.54954 9.35 8.46587 9.48388Z" fill="#010B12"/>
<path d="M14.5417 8.01334H15.9024C16.3307 8.0128 16.7414 7.84239 17.0443 7.5395C17.3472 7.2366 17.5176 6.82595 17.5181 6.39759V2.3157C17.5176 1.88734 17.3472 1.47668 17.0443 1.17379C16.7414 0.870895 16.3307 0.700491 15.9024 0.699951H14.5417C14.1134 0.700491 13.7027 0.870895 13.3998 1.17379C13.0969 1.47668 12.9265 1.88734 12.926 2.3157V3.76137H4.59213V2.3157C4.59159 1.88734 4.42118 1.47668 4.11829 1.17379C3.81539 0.870895 3.40474 0.700491 2.97638 0.699951H1.61575C1.18739 0.700491 0.776733 0.870895 0.473838 1.17379C0.170944 1.47668 0.00054006 1.88734 0 2.3157V6.39759C0.00054006 6.82595 0.170944 7.2366 0.473838 7.5395C0.776733 7.84239 1.18739 8.0128 1.61575 8.01334H2.97638C3.40474 8.0128 3.81539 7.84239 4.11829 7.5395C4.42118 7.2366 4.59159 6.82595 4.59213 6.39759V4.95192H8.16378V6.86497C7.03589 7.00857 5.99907 7.55851 5.24758 8.41175C4.49609 9.26498 4.08151 10.363 4.08151 11.5C4.08151 12.6369 4.49609 13.7349 5.24758 14.5882C5.99907 15.4414 7.03589 15.9913 8.16378 16.1349V18.048H4.59213V16.6023C4.59159 16.174 4.42118 15.7633 4.11829 15.4604C3.81539 15.1575 3.40474 14.9871 2.97638 14.9866H1.61575C1.18739 14.9871 0.776733 15.1575 0.473838 15.4604C0.170944 15.7633 0.00054006 16.174 0 16.6023V20.6842C0.00054006 21.1126 0.170944 21.5232 0.473838 21.8261C0.776733 22.129 1.18739 22.2994 1.61575 22.3H2.97638C3.40474 22.2994 3.81539 22.129 4.11829 21.8261C4.42118 21.5232 4.59159 21.1126 4.59213 20.6842V19.2385H12.926V20.6842C12.9265 21.1126 13.0969 21.5232 13.3998 21.8261C13.7027 22.129 14.1134 22.2994 14.5417 22.3H15.9024C16.3307 22.2994 16.7414 22.129 17.0443 21.8261C17.3472 21.5232 17.5176 21.1126 17.5181 20.6842V16.6023C17.5176 16.174 17.3472 15.7633 17.0443 15.4604C16.7414 15.1575 16.3307 14.9871 15.9024 14.9866H14.5417C14.1134 14.9871 13.7027 15.1575 13.3998 15.4604C13.0969 15.7633 12.9265 16.174 12.926 16.6023V18.048H9.35433V16.1349C10.4822 15.9913 11.519 15.4414 12.2705 14.5882C13.022 13.7349 13.4366 12.6369 13.4366 11.5C13.4366 10.363 13.022 9.26498 12.2705 8.41175C11.519 7.55851 10.4822 7.00857 9.35433 6.86497V4.95192H12.926V6.39759C12.9265 6.82595 13.0969 7.2366 13.3998 7.5395C13.7027 7.84239 14.1134 8.0128 14.5417 8.01334ZM14.1165 2.3157C14.1167 2.20299 14.1616 2.09494 14.2413 2.01524C14.321 1.93554 14.429 1.89068 14.5417 1.8905H15.9024C16.0151 1.89068 16.1231 1.93554 16.2028 2.01524C16.2825 2.09494 16.3274 2.20299 16.3276 2.3157V6.39759C16.3274 6.5103 16.2825 6.61835 16.2028 6.69805C16.1231 6.77775 16.0151 6.82261 15.9024 6.82279H14.5417C14.429 6.82261 14.321 6.77775 14.2413 6.69805C14.1616 6.61835 14.1167 6.5103 14.1165 6.39759V2.3157ZM3.40157 6.39759C3.40139 6.5103 3.35654 6.61835 3.27684 6.69805C3.19714 6.77775 3.08909 6.82261 2.97638 6.82279H1.61575C1.50303 6.82261 1.39499 6.77775 1.31529 6.69805C1.23559 6.61835 1.19073 6.5103 1.19055 6.39759V2.3157C1.19073 2.20299 1.23559 2.09494 1.31529 2.01524C1.39499 1.93554 1.50303 1.89068 1.61575 1.8905H2.97638C3.08909 1.89068 3.19714 1.93554 3.27684 2.01524C3.35654 2.09494 3.40139 2.20299 3.40157 2.3157V6.39759ZM3.40157 20.6842C3.40139 20.7969 3.35654 20.905 3.27684 20.9847C3.19714 21.0644 3.08909 21.1092 2.97638 21.1094H1.61575C1.50303 21.1092 1.39499 21.0644 1.31529 20.9847C1.23559 20.905 1.19073 20.7969 1.19055 20.6842V16.6023C1.19073 16.4896 1.23559 16.3816 1.31529 16.3019C1.39499 16.2222 1.50303 16.1773 1.61575 16.1771H2.97638C3.08909 16.1773 3.19714 16.2222 3.27684 16.3019C3.35654 16.3816 3.40139 16.4896 3.40157 16.6023V20.6842ZM14.1165 16.6023C14.1167 16.4896 14.1616 16.3816 14.2413 16.3019C14.321 16.2222 14.429 16.1773 14.5417 16.1771H15.9024C16.0151 16.1773 16.1231 16.2222 16.2028 16.3019C16.2825 16.3816 16.3274 16.4896 16.3276 16.6023V20.6842C16.3274 20.7969 16.2825 20.905 16.2028 20.9847C16.1231 21.0644 16.0151 21.1092 15.9024 21.1094H14.5417C14.429 21.1092 14.321 21.0644 14.2413 20.9847C14.1616 20.905 14.1167 20.7969 14.1165 20.6842V16.6023ZM12.2457 11.5C12.2457 12.1895 12.0412 12.8636 11.6581 13.437C11.275 14.0104 10.7304 14.4573 10.0933 14.7212C9.45623 14.9851 8.75519 15.0541 8.07885 14.9196C7.40251 14.785 6.78126 14.453 6.29365 13.9654C5.80603 13.4777 5.47397 12.8565 5.33944 12.1802C5.2049 11.5038 5.27395 10.8028 5.53784 10.1657C5.80174 9.52859 6.24863 8.98405 6.822 8.60094C7.39537 8.21782 8.06947 8.01334 8.75906 8.01334C9.68346 8.01433 10.5697 8.38198 11.2234 9.03564C11.877 9.68929 12.2447 10.5755 12.2457 11.5Z" fill="#010B12"/>
</svg>
