<svg width="16" height="23" viewBox="0 0 16 23" fill="none" xmlns="http://www.w3.org/2000/svg">
<path fill-rule="evenodd" clip-rule="evenodd" d="M8.52917 11.47C8.45961 11.4003 8.37699 11.3451 8.28605 11.3074C8.19511 11.2697 8.09762 11.2502 7.99917 11.2502C7.90072 11.2502 7.80324 11.2697 7.7123 11.3074C7.62135 11.3451 7.53874 11.4003 7.46917 11.47C7.46917 11.47 6.71717 12.22 6.11717 13.181C5.67117 13.894 5.32617 14.719 5.32617 15.462C5.32617 16.675 6.48217 17.75 7.99917 17.75C9.51617 17.75 10.6722 16.675 10.6722 15.462C10.6722 14.719 10.3272 13.894 9.88117 13.181C9.28117 12.22 8.52917 11.47 8.52917 11.47ZM7.99917 13.129C8.19117 13.366 8.41017 13.657 8.60917 13.976C8.90217 14.445 9.17217 14.973 9.17217 15.462C9.17217 15.949 8.60817 16.25 7.99917 16.25C7.39017 16.25 6.82617 15.949 6.82617 15.462C6.82617 14.973 7.09617 14.445 7.38917 13.976C7.58817 13.657 7.80717 13.366 7.99917 13.129Z" fill="#010B12"/>
<path fill-rule="evenodd" clip-rule="evenodd" d="M15.75 19.5V8.88C15.75 8.452 15.593 8.038 15.308 7.718L11.859 3.837C11.6947 3.65245 11.4932 3.50475 11.2678 3.40358C11.0424 3.30242 10.7981 3.25008 10.551 3.25H2C1.53587 3.25 1.09075 3.43437 0.762563 3.76256C0.434375 4.09075 0.25 4.53587 0.25 5V19.5C0.25 20.2293 0.539731 20.9288 1.05546 21.4445C1.57118 21.9603 2.27065 22.25 3 22.25H13C13.7293 22.25 14.4288 21.9603 14.9445 21.4445C15.4603 20.9288 15.75 20.2293 15.75 19.5ZM14.25 8.88V19.5C14.25 20.19 13.69 20.75 13 20.75H3C2.31 20.75 1.75 20.19 1.75 19.5V5C1.75 4.9337 1.77634 4.87011 1.82322 4.82322C1.87011 4.77634 1.9337 4.75 2 4.75H10.551C10.622 4.75 10.69 4.781 10.738 4.834L14.187 8.714C14.2277 8.75971 14.2501 8.81881 14.25 8.88Z" fill="#010B12"/>
<path fill-rule="evenodd" clip-rule="evenodd" d="M8.75 1.5C8.75 1.30109 8.67098 1.11032 8.53033 0.96967C8.38968 0.829018 8.19891 0.75 8 0.75H2.5C2.30109 0.75 2.11032 0.829018 1.96967 0.96967C1.82902 1.11032 1.75 1.30109 1.75 1.5V4C1.75 4.414 2.086 4.75 2.5 4.75H8C8.19891 4.75 8.38968 4.67098 8.53033 4.53033C8.67098 4.38968 8.75 4.19891 8.75 4V1.5ZM7.25 2.25V3.25H3.25V2.25H7.25ZM13.061 10.502L9.061 6.002C8.9956 5.92833 8.91633 5.86826 8.82772 5.82522C8.73911 5.78219 8.64288 5.75702 8.54455 5.75117C8.44621 5.74532 8.34768 5.7589 8.25459 5.79113C8.1615 5.82335 8.07567 5.8736 8.002 5.939C7.92833 6.0044 7.86826 6.08367 7.82522 6.17228C7.78219 6.26089 7.75702 6.35712 7.75117 6.45545C7.74532 6.55379 7.7589 6.65232 7.79113 6.74541C7.82335 6.8385 7.8736 6.92433 7.939 6.998L11.939 11.498C12.0711 11.6468 12.2569 11.737 12.4555 11.7488C12.6541 11.7606 12.8492 11.6931 12.998 11.561C13.1468 11.4289 13.237 11.2431 13.2488 11.0445C13.2606 10.8459 13.1931 10.6508 13.061 10.502Z" fill="#010B12"/>
</svg>
