<svg width="16" height="23" viewBox="0 0 16 23" fill="none" xmlns="http://www.w3.org/2000/svg">
<path fill-rule="evenodd" clip-rule="evenodd" d="M14.75 9.5V7.5C14.75 7.03587 14.5656 6.59075 14.2374 6.26256C13.9092 5.93437 13.4641 5.75 13 5.75H7C6.536 5.75 6.091 5.934 5.763 6.263C5.60029 6.42528 5.47122 6.61809 5.38319 6.83036C5.29516 7.04263 5.2499 7.2702 5.25 7.5V18C5.25 18.966 6.033 19.75 7 19.75H8C8.0663 19.75 8.12989 19.7763 8.17678 19.8232C8.22366 19.8701 8.25 19.9337 8.25 20V20.5C8.25 20.964 8.434 21.409 8.763 21.737C9.091 22.066 9.536 22.25 10 22.25H14C14.464 22.25 14.909 22.066 15.237 21.737C15.566 21.409 15.75 20.964 15.75 20.5V17.5C15.75 17.036 15.566 16.591 15.237 16.263C15.0747 16.1003 14.8819 15.9712 14.6696 15.8832C14.4574 15.7952 14.2298 15.7499 14 15.75H11C10.9337 15.75 10.8701 15.7237 10.8232 15.6768C10.7763 15.6299 10.75 15.5663 10.75 15.5V11.5C10.75 11.4337 10.7763 11.3701 10.8232 11.3232C10.8701 11.2763 10.9337 11.25 11 11.25H13C13.4641 11.25 13.9092 11.0656 14.2374 10.7374C14.5656 10.4092 14.75 9.96413 14.75 9.5ZM13.25 7.5V9.5C13.25 9.5663 13.2237 9.62989 13.1768 9.67678C13.1299 9.72366 13.0663 9.75 13 9.75H11C10.536 9.75 10.091 9.934 9.763 10.263C9.60029 10.4253 9.47122 10.6181 9.38319 10.8304C9.29516 11.0426 9.2499 11.2702 9.25 11.5V15.5C9.25 15.964 9.434 16.409 9.763 16.737C10.091 17.066 10.536 17.25 11 17.25H14C14.0663 17.25 14.1299 17.2763 14.1768 17.3232C14.2237 17.3701 14.25 17.4337 14.25 17.5V20.5C14.25 20.5663 14.2237 20.6299 14.1768 20.6768C14.1299 20.7237 14.0663 20.75 14 20.75H10C9.9337 20.75 9.87011 20.7237 9.82322 20.6768C9.77634 20.6299 9.75 20.5663 9.75 20.5V20C9.75 19.5359 9.56563 19.0908 9.23744 18.7626C8.90925 18.4344 8.46413 18.25 8 18.25H7C6.9337 18.25 6.87011 18.2237 6.82322 18.1768C6.77634 18.1299 6.75 18.0663 6.75 18V7.5C6.75 7.4337 6.77634 7.37011 6.82322 7.32322C6.87011 7.27634 6.9337 7.25 7 7.25H13C13.0663 7.25 13.1299 7.27634 13.1768 7.32322C13.2237 7.37011 13.25 7.4337 13.25 7.5Z" fill="#010B12"/>
<path fill-rule="evenodd" clip-rule="evenodd" d="M9.25 8.5V4.5C9.25 4.30109 9.17098 4.11032 9.03033 3.96967C8.88968 3.82902 8.69891 3.75 8.5 3.75C8.30109 3.75 8.11032 3.82902 7.96967 3.96967C7.82902 4.11032 7.75 4.30109 7.75 4.5V8.5C7.75 8.69891 7.82902 8.88968 7.96967 9.03033C8.11032 9.17098 8.30109 9.25 8.5 9.25C8.69891 9.25 8.88968 9.17098 9.03033 9.03033C9.17098 8.88968 9.25 8.69891 9.25 8.5Z" fill="#010B12"/>
<path fill-rule="evenodd" clip-rule="evenodd" d="M8.5 0.75C8.2044 0.750132 7.91171 0.808485 7.63866 0.92173C7.3656 1.03497 7.11753 1.20089 6.9086 1.41001C6.69966 1.61913 6.53397 1.86735 6.42096 2.1405C6.30796 2.41366 6.24987 2.70639 6.25 3.002C6.25013 3.29761 6.30849 3.59029 6.42173 3.86334C6.53498 4.1364 6.70089 4.38447 6.91001 4.5934C7.11913 4.80234 7.36735 4.96803 7.6405 5.08104C7.91366 5.19404 8.2064 5.25213 8.502 5.252C9.099 5.25173 9.67145 5.01432 10.0934 4.59199C10.5154 4.16966 10.7523 3.597 10.752 3C10.7517 2.403 10.5143 1.83055 10.092 1.4086C9.66966 0.986639 9.097 0.749735 8.5 0.75ZM8.5 2.25C8.59849 2.25 8.69602 2.2694 8.78701 2.30709C8.87801 2.34478 8.96069 2.40003 9.03033 2.46967C9.09997 2.53931 9.15522 2.62199 9.19291 2.71299C9.2306 2.80398 9.25 2.90151 9.25 3C9.25 3.09849 9.2306 3.19602 9.19291 3.28701C9.15522 3.37801 9.09997 3.46069 9.03033 3.53033C8.96069 3.59997 8.87801 3.65522 8.78701 3.69291C8.69602 3.7306 8.59849 3.75 8.5 3.75C8.30109 3.75 8.11032 3.67098 7.96967 3.53033C7.82902 3.38968 7.75 3.19891 7.75 3C7.75 2.80109 7.82902 2.61032 7.96967 2.46967C8.11032 2.32902 8.30109 2.25 8.5 2.25ZM3 7.75H1C0.801088 7.75 0.610322 7.82902 0.46967 7.96967C0.329018 8.11032 0.25 8.30109 0.25 8.5C0.25 8.69891 0.329018 8.88968 0.46967 9.03033C0.610322 9.17098 0.801088 9.25 1 9.25H3C3.19891 9.25 3.38968 9.17098 3.53033 9.03033C3.67098 8.88968 3.75 8.69891 3.75 8.5C3.75 8.30109 3.67098 8.11032 3.53033 7.96967C3.38968 7.82902 3.19891 7.75 3 7.75ZM3 11.25H1C0.801088 11.25 0.610322 11.329 0.46967 11.4697C0.329018 11.6103 0.25 11.8011 0.25 12C0.25 12.1989 0.329018 12.3897 0.46967 12.5303C0.610322 12.671 0.801088 12.75 1 12.75H3C3.19891 12.75 3.38968 12.671 3.53033 12.5303C3.67098 12.3897 3.75 12.1989 3.75 12C3.75 11.8011 3.67098 11.6103 3.53033 11.4697C3.38968 11.329 3.19891 11.25 3 11.25ZM3 14.75H1C0.801088 14.75 0.610322 14.829 0.46967 14.9697C0.329018 15.1103 0.25 15.3011 0.25 15.5C0.25 15.6989 0.329018 15.8897 0.46967 16.0303C0.610322 16.171 0.801088 16.25 1 16.25H3C3.19891 16.25 3.38968 16.171 3.53033 16.0303C3.67098 15.8897 3.75 15.6989 3.75 15.5C3.75 15.3011 3.67098 15.1103 3.53033 14.9697C3.38968 14.829 3.19891 14.75 3 14.75ZM3 18.25H1C0.801088 18.25 0.610322 18.329 0.46967 18.4697C0.329018 18.6103 0.25 18.8011 0.25 19C0.25 19.1989 0.329018 19.3897 0.46967 19.5303C0.610322 19.671 0.801088 19.75 1 19.75H3C3.19891 19.75 3.38968 19.671 3.53033 19.5303C3.67098 19.3897 3.75 19.1989 3.75 19C3.75 18.8011 3.67098 18.6103 3.53033 18.4697C3.38968 18.329 3.19891 18.25 3 18.25Z" fill="#010B12"/>
</svg>
